M48
; DRILL file KiCad 10.0.1 date 2026-08-22T00:40:56
; FORMAT={-:-/ absolute / metric / decimal}
; #@! TF.CreationDate,2026-08-22T00:40:56+01:00
; #@! TF.GenerationSoftware,Kicad,Pcbnew,10.0.1
; #@! TF.FileFunction,Plated,1,2,PTH
FMAT,2
METRIC
; #@! TA.AperFunction,Plated,PTH,ViaDrill
T1C0.500
; #@! TA.AperFunction,Plated,PTH,ComponentDrill
T2C0.700
; #@! TA.AperFunction,Plated,PTH,ComponentDrill
T3C0.750
; #@! TA.AperFunction,Plated,PTH,ComponentDrill
T4C0.800
; #@! TA.AperFunction,Plated,PTH,ComponentDrill
T5C0.900
; #@! TA.AperFunction,Plated,PTH,ComponentDrill
T6C1.000
; #@! TA.AperFunction,Plated,PTH,ComponentDrill
T7C1.100
%
G90
G05
T1
X197.675Y-69.825
X206.8Y-91.375
X214.575Y-91.25
X218.175Y-71.5
T2
X224.7Y-87.975
X225.7Y-86.975
X225.7Y-88.975
T3
X205.685Y-66.775
X206.955Y-66.775
X208.225Y-66.775
T4
X183.52Y-72.66
X183.52Y-77.74
X188.6Y-75.2
X203.37Y-74.79
X203.37Y-77.33
X203.37Y-79.87
X203.37Y-82.41
X210.99Y-74.79
X210.99Y-77.33
X210.99Y-79.87
X210.99Y-82.41
X222.4Y-55.775
X227.48Y-53.235
X227.48Y-58.315
T5
X226.025Y-67.885
X226.025Y-70.425
T6
X189.15Y-95.025
X191.69Y-95.025
X202.325Y-53.025
X202.325Y-55.565
X202.325Y-58.105
X202.325Y-60.645
X223.35Y-77.875
X225.89Y-77.875
X228.43Y-77.875
T7
X204.3Y-96.425
X206.84Y-96.425
X209.38Y-96.425
M30
