%TF.GenerationSoftware,KiCad,Pcbnew,10.0.1*%
%TF.CreationDate,2026-08-22T00:40:57+01:00*%
%TF.ProjectId,Lazer-amplitude-modulation,4c617a65-722d-4616-9d70-6c6974756465,rev?*%
%TF.SameCoordinates,Original*%
%TF.FileFunction,Copper,L2,Bot*%
%TF.FilePolarity,Positive*%
%FSLAX46Y46*%
G04 Gerber Fmt 4.6, Leading zero omitted, Abs format (unit mm)*
G04 Created by KiCad (PCBNEW 10.0.1) date 2026-08-22 00:40:57*
%MOMM*%
%LPD*%
G01*
G04 APERTURE LIST*
G04 Aperture macros list*
%AMRoundRect*
0 Rectangle with rounded corners*
0 $1 Rounding radius*
0 $2 $3 $4 $5 $6 $7 $8 $9 X,Y pos of 4 corners*
0 Add a 4 corners polygon primitive as box body*
4,1,4,$2,$3,$4,$5,$6,$7,$8,$9,$2,$3,0*
0 Add four circle primitives for the rounded corners*
1,1,$1+$1,$2,$3*
1,1,$1+$1,$4,$5*
1,1,$1+$1,$6,$7*
1,1,$1+$1,$8,$9*
0 Add four rect primitives between the rounded corners*
20,1,$1+$1,$2,$3,$4,$5,0*
20,1,$1+$1,$4,$5,$6,$7,0*
20,1,$1+$1,$6,$7,$8,$9,0*
20,1,$1+$1,$8,$9,$2,$3,0*%
G04 Aperture macros list end*
%TA.AperFunction,ComponentPad*%
%ADD10R,1.905000X2.000000*%
%TD*%
%TA.AperFunction,ComponentPad*%
%ADD11O,1.905000X2.000000*%
%TD*%
%TA.AperFunction,ComponentPad*%
%ADD12RoundRect,0.250000X-0.550000X-0.550000X0.550000X-0.550000X0.550000X0.550000X-0.550000X0.550000X0*%
%TD*%
%TA.AperFunction,ComponentPad*%
%ADD13C,1.600000*%
%TD*%
%TA.AperFunction,ComponentPad*%
%ADD14C,1.440000*%
%TD*%
%TA.AperFunction,ComponentPad*%
%ADD15R,1.050000X1.500000*%
%TD*%
%TA.AperFunction,ComponentPad*%
%ADD16O,1.050000X1.500000*%
%TD*%
%TA.AperFunction,ComponentPad*%
%ADD17RoundRect,0.250000X-0.353553X0.000000X0.000000X-0.353553X0.353553X0.000000X0.000000X0.353553X0*%
%TD*%
%TA.AperFunction,ComponentPad*%
%ADD18C,1.000000*%
%TD*%
%TA.AperFunction,ComponentPad*%
%ADD19R,1.700000X1.700000*%
%TD*%
%TA.AperFunction,ComponentPad*%
%ADD20C,1.700000*%
%TD*%
%TA.AperFunction,ComponentPad*%
%ADD21R,1.800000X1.800000*%
%TD*%
%TA.AperFunction,ComponentPad*%
%ADD22C,1.800000*%
%TD*%
%TA.AperFunction,ViaPad*%
%ADD23C,1.000000*%
%TD*%
%TA.AperFunction,Conductor*%
%ADD24C,0.800000*%
%TD*%
G04 APERTURE END LIST*
D10*
%TO.P,U2,1,VI_1*%
%TO.N,+9V*%
X209380000Y-96425000D03*
D11*
%TO.P,U2,2,GND_2*%
%TO.N,GND*%
X206840000Y-96425000D03*
%TO.P,U2,3,VO_3*%
%TO.N,+5V*%
X204300000Y-96425000D03*
%TD*%
D12*
%TO.P,U1,1,NULL_1*%
%TO.N,unconnected-(U1-NULL-Pad1)*%
X203370000Y-74790000D03*
D13*
%TO.P,U1,2,-_2*%
%TO.N,Qsource*%
X203370000Y-77330000D03*
%TO.P,U1,3,+_3*%
%TO.N,Vset*%
X203370000Y-79870000D03*
%TO.P,U1,4,V-_4*%
%TO.N,GND*%
X203370000Y-82410000D03*
%TO.P,U1,5,NULL_5*%
%TO.N,unconnected-(U1-NULL-Pad5)*%
X210990000Y-82410000D03*
%TO.P,U1,6*%
%TO.N,Net-(R2-Pad1)*%
X210990000Y-79870000D03*
%TO.P,U1,7,V+_7*%
%TO.N,+9V*%
X210990000Y-77330000D03*
%TO.P,U1,8,STRB_8*%
%TO.N,unconnected-(U1-STRB-Pad8)*%
X210990000Y-74790000D03*
%TD*%
D14*
%TO.P,RV3,1,1_1*%
%TO.N,Net-(C5-Pad2)*%
X227480000Y-53235000D03*
%TO.P,RV3,2,2_2*%
%TO.N,Net-(R8-Pad1)*%
X222400000Y-55775000D03*
%TO.P,RV3,3,3_3*%
%TO.N,GND*%
X227480000Y-58315000D03*
%TD*%
%TO.P,RV2,1,1_1*%
%TO.N,Net-(R5-Pad1)*%
X183520000Y-77740000D03*
%TO.P,RV2,2,2_2*%
%TO.N,Vset*%
X188600000Y-75200000D03*
%TO.P,RV2,3,3_3*%
%TO.N,GND*%
X183520000Y-72660000D03*
%TD*%
D15*
%TO.P,Q1,1,S_1*%
%TO.N,Qsource*%
X205685000Y-66775000D03*
D16*
%TO.P,Q1,2,G_2*%
%TO.N,Net-(Q1-G)*%
X206955000Y-66775000D03*
%TO.P,Q1,3,D_3*%
%TO.N,Net-(D1-K)*%
X208225000Y-66775000D03*
%TD*%
D17*
%TO.P,LD2,1*%
%TO.N,Net-(D1-K)*%
X225700000Y-86975000D03*
D18*
%TO.P,LD2,2*%
%TO.N,Net-(J1-Pin_1)*%
X224700000Y-87975000D03*
%TO.P,LD2,3*%
%TO.N,Net-(J4-Pin_1)*%
X225700000Y-88975000D03*
%TD*%
D19*
%TO.P,J3,1,Pin_1_1*%
%TO.N,+9V*%
X189150000Y-95025000D03*
D20*
%TO.P,J3,2,Pin_2_2*%
%TO.N,GND*%
X191690000Y-95025000D03*
%TD*%
D19*
%TO.P,J2,1,Pin_1_1*%
%TO.N,Net-(J2-Pin_1)*%
X202325000Y-53025000D03*
D20*
%TO.P,J2,2,Pin_2_2*%
%TO.N,Net-(J2-Pin_2)*%
X202325000Y-55565000D03*
%TO.P,J2,3,Pin_3_3*%
%TO.N,+5V*%
X202325000Y-58105000D03*
%TO.P,J2,4,Pin_4_4*%
%TO.N,GND*%
X202325000Y-60645000D03*
%TD*%
D19*
%TO.P,J1,1,Pin_1_1*%
%TO.N,Net-(J1-Pin_1)*%
X223350000Y-77875000D03*
D20*
%TO.P,J1,2,Pin_2_2*%
%TO.N,+9V*%
X225890000Y-77875000D03*
%TO.P,J1,3,Pin_3_3*%
%TO.N,Net-(D1-A)*%
X228430000Y-77875000D03*
%TD*%
D21*
%TO.P,D1,1,K_1*%
%TO.N,Net-(D1-K)*%
X226025000Y-70425000D03*
D22*
%TO.P,D1,2,A_2*%
%TO.N,Net-(D1-A)*%
X226025000Y-67885000D03*
%TD*%
D23*
%TO.N,GND*%
X197675000Y-69825000D03*
X214575000Y-91250000D03*
X218175000Y-71500000D03*
X206800000Y-91375000D03*
%TD*%
%TO.N,Net-(J1-Pin_1)*%
D24*
X223350000Y-86625000D02*
X224700000Y-87975000D01*
X223350000Y-77875000D02*
X223350000Y-86625000D01*
%TD*%
%TA.AperFunction,Conductor*%
%TO.N,GND*%
G36*
X230142539Y-50445185D02*
G01*
X230188294Y-50497989D01*
X230199500Y-50549500D01*
X230199500Y-99300500D01*
X230179815Y-99367539D01*
X230127011Y-99413294D01*
X230075500Y-99424500D01*
X181324500Y-99424500D01*
X181257461Y-99404815D01*
X181211706Y-99352011D01*
X181200500Y-99300500D01*
X181200500Y-94127135D01*
X187799500Y-94127135D01*
X187799500Y-95922870D01*
X187799501Y-95922876D01*
X187805908Y-95982483D01*
X187856202Y-96117328D01*
X187856206Y-96117335D01*
X187942452Y-96232544D01*
X187942455Y-96232547D01*
X188057664Y-96318793D01*
X188057671Y-96318797D01*
X188192517Y-96369091D01*
X188192516Y-96369091D01*
X188199444Y-96369835D01*
X188252127Y-96375500D01*
X190047872Y-96375499D01*
X190107483Y-96369091D01*
X190242331Y-96318796D01*
X190357546Y-96232546D01*
X190443796Y-96117331D01*
X190494091Y-95982483D01*
X190500500Y-95922873D01*
X190500499Y-95898979D01*
X190503330Y-95885963D01*
X190513940Y-95866525D01*
X190520179Y-95845275D01*
X190536803Y-95824643D01*
X190536808Y-95824636D01*
X190536811Y-95824634D01*
X190536818Y-95824626D01*
X191207037Y-95154408D01*
X191224075Y-95217993D01*
X191289901Y-95332007D01*
X191382993Y-95425099D01*
X191497007Y-95490925D01*
X191560590Y-95507962D01*
X190928282Y-96140269D01*
X190928282Y-96140270D01*
X190982449Y-96179624D01*
X191171782Y-96276095D01*
X191373870Y-96341757D01*
X191583754Y-96375000D01*
X191796246Y-96375000D01*
X192006127Y-96341757D01*
X192006130Y-96341757D01*
X192208217Y-96276095D01*
X192233630Y-96263146D01*
X202847000Y-96263146D01*
X202847000Y-96586853D01*
X202882778Y-96812746D01*
X202882778Y-96812749D01*
X202953450Y-97030255D01*
X202953452Y-97030258D01*
X203057283Y-97234038D01*
X203191714Y-97419066D01*
X203353434Y-97580786D01*
X203538462Y-97715217D01*
X203670599Y-97782544D01*
X203742244Y-97819049D01*
X203959751Y-97889721D01*
X203959752Y-97889721D01*
X203959755Y-97889722D01*
X204185646Y-97925500D01*
X204185647Y-97925500D01*
X204414353Y-97925500D01*
X204414354Y-97925500D01*
X204640245Y-97889722D01*
X204640248Y-97889721D01*
X204640249Y-97889721D01*
X204857755Y-97819049D01*
X204857755Y-97819048D01*
X204857758Y-97819048D01*
X205061538Y-97715217D01*
X205246566Y-97580786D01*
X205408286Y-97419066D01*
X205469992Y-97334134D01*
X205525319Y-97291470D01*
X205594932Y-97285491D01*
X205656727Y-97318096D01*
X205670626Y-97334135D01*
X205732097Y-97418741D01*
X205732097Y-97418742D01*
X205893757Y-97580402D01*
X206078723Y-97714788D01*
X206282429Y-97818582D01*
X206499871Y-97889234D01*
X206590000Y-97903509D01*
X206590000Y-96915747D01*
X206627708Y-96937518D01*
X206767591Y-96975000D01*
X206912409Y-96975000D01*
X207052292Y-96937518D01*
X207090000Y-96915747D01*
X207090000Y-97903508D01*
X207180128Y-97889234D01*
X207397570Y-97818582D01*
X207601276Y-97714788D01*
X207784059Y-97581988D01*
X207849865Y-97558508D01*
X207917919Y-97574333D01*
X207966614Y-97624439D01*
X207973127Y-97638974D01*
X207983701Y-97667326D01*
X207983706Y-97667335D01*
X208069952Y-97782544D01*
X208069955Y-97782547D01*
X208185164Y-97868793D01*
X208185171Y-97868797D01*
X208320017Y-97919091D01*
X208320016Y-97919091D01*
X208326944Y-97919835D01*
X208379627Y-97925500D01*
X210380372Y-97925499D01*
X210439983Y-97919091D01*
X210574831Y-97868796D01*
X210690046Y-97782546D01*
X210776296Y-97667331D01*
X210826591Y-97532483D01*
X210833000Y-97472873D01*
X210832999Y-95534568D01*
X223699500Y-95534568D01*
X223699500Y-95815431D01*
X223730942Y-96094494D01*
X223730945Y-96094512D01*
X223793439Y-96368317D01*
X223793443Y-96368329D01*
X223886200Y-96633411D01*
X224008053Y-96886442D01*
X224008055Y-96886445D01*
X224157477Y-97124248D01*
X224332584Y-97343825D01*
X224531175Y-97542416D01*
X224750752Y-97717523D01*
X224988555Y-97866945D01*
X225241592Y-97988801D01*
X225440680Y-98058465D01*
X225506670Y-98081556D01*
X225506682Y-98081560D01*
X225780491Y-98144055D01*
X225780497Y-98144055D01*
X225780505Y-98144057D01*
X225966547Y-98165018D01*
X226059569Y-98175499D01*
X226059572Y-98175500D01*
X226059575Y-98175500D01*
X226340428Y-98175500D01*
X226340429Y-98175499D01*
X226483055Y-98159429D01*
X226619494Y-98144057D01*
X226619499Y-98144056D01*
X226619509Y-98144055D01*
X226893318Y-98081560D01*
X227158408Y-97988801D01*
X227411445Y-97866945D01*
X227649248Y-97717523D01*
X227868825Y-97542416D01*
X228067416Y-97343825D01*
X228242523Y-97124248D01*
X228391945Y-96886445D01*
X228513801Y-96633408D01*
X228606560Y-96368318D01*
X228669055Y-96094509D01*
X228673170Y-96057992D01*
X228692552Y-95885963D01*
X228700500Y-95815425D01*
X228700500Y-95534575D01*
X228676044Y-95317517D01*
X228669057Y-95255505D01*
X228669054Y-95255487D01*
X228606560Y-94981682D01*
X228606556Y-94981670D01*
X228583465Y-94915680D01*
X228513801Y-94716592D01*
X228391945Y-94463555D01*
X228242523Y-94225752D01*
X228067416Y-94006175D01*
X227868825Y-93807584D01*
X227649248Y-93632477D01*
X227411445Y-93483055D01*
X227411442Y-93483053D01*
X227158411Y-93361200D01*
X226893329Y-93268443D01*
X226893317Y-93268439D01*
X226619512Y-93205945D01*
X226619494Y-93205942D01*
X226340431Y-93174500D01*
X226340425Y-93174500D01*
X226059575Y-93174500D01*
X226059568Y-93174500D01*
X225780505Y-93205942D01*
X225780487Y-93205945D01*
X225506682Y-93268439D01*
X225506670Y-93268443D01*
X225241588Y-93361200D01*
X224988557Y-93483053D01*
X224750753Y-93632476D01*
X224531175Y-93807583D01*
X224332583Y-94006175D01*
X224157476Y-94225753D01*
X224008053Y-94463557D01*
X223886200Y-94716588D01*
X223793443Y-94981670D01*
X223793439Y-94981682D01*
X223730945Y-95255487D01*
X223730942Y-95255505D01*
X223699500Y-95534568D01*
X210832999Y-95534568D01*
X210832999Y-95377128D01*
X210826591Y-95317517D01*
X210816841Y-95291377D01*
X210776297Y-95182671D01*
X210776293Y-95182664D01*
X210690047Y-95067455D01*
X210690044Y-95067452D01*
X210574835Y-94981206D01*
X210574828Y-94981202D01*
X210439982Y-94930908D01*
X210439983Y-94930908D01*
X210380383Y-94924501D01*
X210380381Y-94924500D01*
X210380373Y-94924500D01*
X210380364Y-94924500D01*
X208379629Y-94924500D01*
X208379623Y-94924501D01*
X208320016Y-94930908D01*
X208185171Y-94981202D01*
X208185164Y-94981206D01*
X208069955Y-95067452D01*
X208069952Y-95067455D01*
X207983706Y-95182664D01*
X207983702Y-95182671D01*
X207973127Y-95211026D01*
X207931256Y-95266960D01*
X207865791Y-95291377D01*
X207797518Y-95276525D01*
X207784060Y-95268011D01*
X207601279Y-95135213D01*
X207397568Y-95031417D01*
X207180124Y-94960765D01*
X207090000Y-94946490D01*
X207090000Y-95934252D01*
X207052292Y-95912482D01*
X206912409Y-95875000D01*
X206767591Y-95875000D01*
X206627708Y-95912482D01*
X206590000Y-95934252D01*
X206590000Y-94946490D01*
X206589999Y-94946490D01*
X206499875Y-94960765D01*
X206282431Y-95031417D01*
X206078723Y-95135211D01*
X205893757Y-95269597D01*
X205732097Y-95431257D01*
X205670627Y-95515864D01*
X205615297Y-95558529D01*
X205545684Y-95564508D01*
X205483889Y-95531902D01*
X205469991Y-95515864D01*
X205408286Y-95430934D01*
X205246566Y-95269214D01*
X205061538Y-95134783D01*
X204995561Y-95101166D01*
X204857755Y-95030950D01*
X204640248Y-94960278D01*
X204454812Y-94930908D01*
X204414354Y-94924500D01*
X204185646Y-94924500D01*
X204145188Y-94930908D01*
X203959753Y-94960278D01*
X203959750Y-94960278D01*
X203742244Y-95030950D01*
X203538461Y-95134783D01*
X203472550Y-95182671D01*
X203353434Y-95269214D01*
X203353432Y-95269216D01*
X203353431Y-95269216D01*
X203191716Y-95430931D01*
X203191716Y-95430932D01*
X203191714Y-95430934D01*
X203148128Y-95490925D01*
X203057283Y-95615961D01*
X202953450Y-95819744D01*
X202882778Y-96037250D01*
X202882778Y-96037253D01*
X202847000Y-96263146D01*
X192233630Y-96263146D01*
X192397557Y-96179620D01*
X192427372Y-96157959D01*
X192427376Y-96157956D01*
X192451716Y-96140270D01*
X192451717Y-96140270D01*
X191819408Y-95507962D01*
X191882993Y-95490925D01*
X191997007Y-95425099D01*
X192090099Y-95332007D01*
X192155925Y-95217993D01*
X192172962Y-95154408D01*
X192805270Y-95786717D01*
X192805270Y-95786716D01*
X192844622Y-95732554D01*
X192941095Y-95543217D01*
X193006757Y-95341130D01*
X193006757Y-95341127D01*
X193040000Y-95131246D01*
X193040000Y-94918753D01*
X193006757Y-94708872D01*
X193006757Y-94708869D01*
X192941095Y-94506782D01*
X192844624Y-94317449D01*
X192805270Y-94263282D01*
X192805269Y-94263282D01*
X192172962Y-94895590D01*
X192155925Y-94832007D01*
X192090099Y-94717993D01*
X191997007Y-94624901D01*
X191882993Y-94559075D01*
X191819409Y-94542037D01*
X192451716Y-93909728D01*
X192397550Y-93870375D01*
X192208217Y-93773904D01*
X192006129Y-93708242D01*
X191796246Y-93675000D01*
X191583754Y-93675000D01*
X191373872Y-93708242D01*
X191373869Y-93708242D01*
X191171782Y-93773904D01*
X190982439Y-93870380D01*
X190928282Y-93909727D01*
X190928282Y-93909728D01*
X191560591Y-94542037D01*
X191497007Y-94559075D01*
X191382993Y-94624901D01*
X191289901Y-94717993D01*
X191224075Y-94832007D01*
X191207037Y-94895591D01*
X190536818Y-94225372D01*
X190503333Y-94164049D01*
X190503330Y-94164036D01*
X190500499Y-94151015D01*
X190500499Y-94127128D01*
X190494091Y-94067517D01*
X190465926Y-93992002D01*
X190443798Y-93932673D01*
X190443793Y-93932664D01*
X190357547Y-93817455D01*
X190357544Y-93817452D01*
X190242335Y-93731206D01*
X190242328Y-93731202D01*
X190107482Y-93680908D01*
X190107483Y-93680908D01*
X190047883Y-93674501D01*
X190047881Y-93674500D01*
X190047873Y-93674500D01*
X190047864Y-93674500D01*
X188252129Y-93674500D01*
X188252123Y-93674501D01*
X188192516Y-93680908D01*
X188057671Y-93731202D01*
X188057664Y-93731206D01*
X187942455Y-93817452D01*
X187942452Y-93817455D01*
X187856206Y-93932664D01*
X187856202Y-93932671D01*
X187805908Y-94067517D01*
X187799501Y-94127116D01*
X187799500Y-94127135D01*
X181200500Y-94127135D01*
X181200500Y-77643945D01*
X182299500Y-77643945D01*
X182299500Y-77836054D01*
X182329553Y-78025802D01*
X182388916Y-78208506D01*
X182446730Y-78321971D01*
X182476135Y-78379681D01*
X182589055Y-78535102D01*
X182724898Y-78670945D01*
X182880319Y-78783865D01*
X183051491Y-78871082D01*
X183051493Y-78871083D01*
X183142845Y-78900764D01*
X183234199Y-78930447D01*
X183423945Y-78960500D01*
X183423946Y-78960500D01*
X183616054Y-78960500D01*
X183616055Y-78960500D01*
X183805801Y-78930447D01*
X183988509Y-78871082D01*
X184159681Y-78783865D01*
X184315102Y-78670945D01*
X184450945Y-78535102D01*
X184563865Y-78379681D01*
X184651082Y-78208509D01*
X184710447Y-78025801D01*
X184740500Y-77836055D01*
X184740500Y-77643945D01*
X184710447Y-77454199D01*
X184680764Y-77362845D01*
X184651083Y-77271493D01*
X184602399Y-77175946D01*
X184563865Y-77100319D01*
X184450945Y-76944898D01*
X184315102Y-76809055D01*
X184159681Y-76696135D01*
X184017018Y-76623444D01*
X183988506Y-76608916D01*
X183805802Y-76549553D01*
X183688082Y-76530908D01*
X183616055Y-76519500D01*
X183423945Y-76519500D01*
X183360696Y-76529517D01*
X183234197Y-76549553D01*
X183051493Y-76608916D01*
X182880318Y-76696135D01*
X182791645Y-76760560D01*
X182724898Y-76809055D01*
X182724896Y-76809057D01*
X182724895Y-76809057D01*
X182589057Y-76944895D01*
X182589057Y-76944896D01*
X182589055Y-76944898D01*
X182558516Y-76986931D01*
X182476135Y-77100318D01*
X182388916Y-77271493D01*
X182329553Y-77454197D01*
X182299500Y-77643945D01*
X181200500Y-77643945D01*
X181200500Y-75103945D01*
X187379500Y-75103945D01*
X187379500Y-75296054D01*
X187409553Y-75485802D01*
X187468916Y-75668506D01*
X187526730Y-75781971D01*
X187556135Y-75839681D01*
X187669055Y-75995102D01*
X187804898Y-76130945D01*
X187960319Y-76243865D01*
X188131491Y-76331082D01*
X188131493Y-76331083D01*
X188222845Y-76360764D01*
X188314199Y-76390447D01*
X188503945Y-76420500D01*
X188503946Y-76420500D01*
X188696054Y-76420500D01*
X188696055Y-76420500D01*
X188885801Y-76390447D01*
X189068509Y-76331082D01*
X189239681Y-76243865D01*
X189395102Y-76130945D01*
X189530945Y-75995102D01*
X189643865Y-75839681D01*
X189731082Y-75668509D01*
X189790447Y-75485801D01*
X189820500Y-75296055D01*
X189820500Y-75103945D01*
X189790447Y-74914199D01*
X189731082Y-74731491D01*
X189643865Y-74560319D01*
X189530945Y-74404898D01*
X189395102Y-74269055D01*
X189286269Y-74189983D01*
X202069500Y-74189983D01*
X202069500Y-75390001D01*
X202069501Y-75390018D01*
X202080000Y-75492796D01*
X202080001Y-75492799D01*
X202127856Y-75637213D01*
X202135186Y-75659334D01*
X202227288Y-75808656D01*
X202351344Y-75932712D01*
X202500666Y-76024814D01*
X202582570Y-76051954D01*
X202640015Y-76091727D01*
X202666838Y-76156243D01*
X202654523Y-76225018D01*
X202616451Y-76269978D01*
X202522787Y-76338028D01*
X202522782Y-76338032D01*
X202378028Y-76482786D01*
X202257715Y-76648386D01*
X202164781Y-76830776D01*
X202101522Y-77025465D01*
X202069500Y-77227648D01*
X202069500Y-77432351D01*
X202101522Y-77634534D01*
X202164781Y-77829223D01*
X202257715Y-78011613D01*
X202378028Y-78177213D01*
X202522786Y-78321971D01*
X202677749Y-78434556D01*
X202688390Y-78442287D01*
X202779840Y-78488883D01*
X202781080Y-78489515D01*
X202831876Y-78537490D01*
X202848671Y-78605311D01*
X202826134Y-78671446D01*
X202781080Y-78710485D01*
X202688386Y-78757715D01*
X202522786Y-78878028D01*
X202378028Y-79022786D01*
X202257715Y-79188386D01*
X202164781Y-79370776D01*
X202101522Y-79565465D01*
X202069500Y-79767648D01*
X202069500Y-79972351D01*
X202101522Y-80174534D01*
X202164781Y-80369223D01*
X202257715Y-80551613D01*
X202378028Y-80717213D01*
X202522786Y-80861971D01*
X202688385Y-80982284D01*
X202688387Y-80982285D01*
X202688390Y-80982287D01*
X202781080Y-81029515D01*
X202781630Y-81029795D01*
X202832426Y-81077770D01*
X202849221Y-81145591D01*
X202826684Y-81211725D01*
X202781630Y-81250765D01*
X202688644Y-81298143D01*
X202644077Y-81330523D01*
X202644077Y-81330524D01*
X203323554Y-82010000D01*
X203317339Y-82010000D01*
X203215606Y-82037259D01*
X203124394Y-82089920D01*
X203049920Y-82164394D01*
X202997259Y-82255606D01*
X202970000Y-82357339D01*
X202970000Y-82363553D01*
X202290524Y-81684077D01*
X202290523Y-81684077D01*
X202258143Y-81728644D01*
X202165244Y-81910968D01*
X202102009Y-82105582D01*
X202070000Y-82307682D01*
X202070000Y-82512317D01*
X202102009Y-82714417D01*
X202165244Y-82909031D01*
X202258141Y-83091350D01*
X202258147Y-83091359D01*
X202290523Y-83135921D01*
X202290524Y-83135922D01*
X202970000Y-82456446D01*
X202970000Y-82462661D01*
X202997259Y-82564394D01*
X203049920Y-82655606D01*
X203124394Y-82730080D01*
X203215606Y-82782741D01*
X203317339Y-82810000D01*
X203323553Y-82810000D01*
X202644076Y-83489474D01*
X202688650Y-83521859D01*
X202870968Y-83614755D01*
X203065582Y-83677990D01*
X203267683Y-83710000D01*
X203472317Y-83710000D01*
X203674417Y-83677990D01*
X203869031Y-83614755D01*
X204051349Y-83521859D01*
X204095921Y-83489474D01*
X203416447Y-82810000D01*
X203422661Y-82810000D01*
X203524394Y-82782741D01*
X203615606Y-82730080D01*
X203690080Y-82655606D01*
X203742741Y-82564394D01*
X203770000Y-82462661D01*
X203770000Y-82456448D01*
X204449474Y-83135922D01*
X204449474Y-83135921D01*
X204481859Y-83091349D01*
X204574755Y-82909031D01*
X204637990Y-82714417D01*
X204670000Y-82512317D01*
X204670000Y-82307682D01*
X204637990Y-82105582D01*
X204574755Y-81910968D01*
X204481859Y-81728650D01*
X204449474Y-81684077D01*
X204449474Y-81684076D01*
X203770000Y-82363551D01*
X203770000Y-82357339D01*
X203742741Y-82255606D01*
X203690080Y-82164394D01*
X203615606Y-82089920D01*
X203524394Y-82037259D01*
X203422661Y-82010000D01*
X203416446Y-82010000D01*
X204095922Y-81330524D01*
X204095921Y-81330523D01*
X204051359Y-81298147D01*
X204051350Y-81298141D01*
X203958369Y-81250765D01*
X203907573Y-81202790D01*
X203890778Y-81134969D01*
X203913315Y-81068835D01*
X203958370Y-81029795D01*
X203958920Y-81029515D01*
X204051610Y-80982287D01*
X204101144Y-80946298D01*
X204217213Y-80861971D01*
X204217215Y-80861968D01*
X204217219Y-80861966D01*
X204361966Y-80717219D01*
X204361968Y-80717215D01*
X204361971Y-80717213D01*
X204414732Y-80644590D01*
X204482287Y-80551610D01*
X204575220Y-80369219D01*
X204638477Y-80174534D01*
X204670500Y-79972352D01*
X204670500Y-79767648D01*
X204638477Y-79565466D01*
X204575220Y-79370781D01*
X204575218Y-79370778D01*
X204575218Y-79370776D01*
X204518468Y-79259400D01*
X204482287Y-79188390D01*
X204468049Y-79168793D01*
X204361971Y-79022786D01*
X204217213Y-78878028D01*
X204051614Y-78757715D01*
X204045006Y-78754348D01*
X203958917Y-78710483D01*
X203908123Y-78662511D01*
X203891328Y-78594690D01*
X203913865Y-78528555D01*
X203958917Y-78489516D01*
X204051610Y-78442287D01*
X204072770Y-78426913D01*
X204217213Y-78321971D01*
X204217215Y-78321968D01*
X204217219Y-78321966D01*
X204361966Y-78177219D01*
X204361968Y-78177215D01*
X204361971Y-78177213D01*
X204414732Y-78104590D01*
X204482287Y-78011610D01*
X204575220Y-77829219D01*
X204638477Y-77634534D01*
X204670500Y-77432352D01*
X204670500Y-77227648D01*
X204660923Y-77167182D01*
X204638477Y-77025465D01*
X204575218Y-76830776D01*
X204506614Y-76696135D01*
X204482287Y-76648390D01*
X204453608Y-76608916D01*
X204361971Y-76482786D01*
X204217219Y-76338034D01*
X204207650Y-76331082D01*
X204123547Y-76269978D01*
X204080882Y-76214649D01*
X204074903Y-76145036D01*
X204107508Y-76083240D01*
X204157426Y-76051955D01*
X204239334Y-76024814D01*
X204388656Y-75932712D01*
X204512712Y-75808656D01*
X204604814Y-75659334D01*
X204659999Y-75492797D01*
X204670500Y-75390009D01*
X204670499Y-74687648D01*
X209689500Y-74687648D01*
X209689500Y-74892351D01*
X209721522Y-75094534D01*
X209784781Y-75289223D01*
X209877715Y-75471613D01*
X209998028Y-75637213D01*
X210142786Y-75781971D01*
X210297749Y-75894556D01*
X210308390Y-75902287D01*
X210399840Y-75948883D01*
X210401080Y-75949515D01*
X210451876Y-75997490D01*
X210468671Y-76065311D01*
X210446134Y-76131446D01*
X210401080Y-76170485D01*
X210308386Y-76217715D01*
X210142786Y-76338028D01*
X209998028Y-76482786D01*
X209877715Y-76648386D01*
X209784781Y-76830776D01*
X209721522Y-77025465D01*
X209689500Y-77227648D01*
X209689500Y-77432351D01*
X209721522Y-77634534D01*
X209784781Y-77829223D01*
X209877715Y-78011613D01*
X209998028Y-78177213D01*
X210142786Y-78321971D01*
X210297749Y-78434556D01*
X210308390Y-78442287D01*
X210399840Y-78488883D01*
X210401080Y-78489515D01*
X210451876Y-78537490D01*
X210468671Y-78605311D01*
X210446134Y-78671446D01*
X210401080Y-78710485D01*
X210308386Y-78757715D01*
X210142786Y-78878028D01*
X209998028Y-79022786D01*
X209877715Y-79188386D01*
X209784781Y-79370776D01*
X209721522Y-79565465D01*
X209689500Y-79767648D01*
X209689500Y-79972351D01*
X209721522Y-80174534D01*
X209784781Y-80369223D01*
X209877715Y-80551613D01*
X209998028Y-80717213D01*
X210142786Y-80861971D01*
X210297749Y-80974556D01*
X210308390Y-80982287D01*
X210399840Y-81028883D01*
X210401080Y-81029515D01*
X210451876Y-81077490D01*
X210468671Y-81145311D01*
X210446134Y-81211446D01*
X210401080Y-81250485D01*
X210308386Y-81297715D01*
X210142786Y-81418028D01*
X209998028Y-81562786D01*
X209877715Y-81728386D01*
X209784781Y-81910776D01*
X209721522Y-82105465D01*
X209689500Y-82307648D01*
X209689500Y-82512351D01*
X209721522Y-82714534D01*
X209784781Y-82909223D01*
X209848691Y-83034653D01*
X209877585Y-83091359D01*
X209877715Y-83091613D01*
X209998028Y-83257213D01*
X210142786Y-83401971D01*
X210263226Y-83489474D01*
X210308390Y-83522287D01*
X210424607Y-83581503D01*
X210490776Y-83615218D01*
X210490778Y-83615218D01*
X210490781Y-83615220D01*
X210595137Y-83649127D01*
X210685465Y-83678477D01*
X210786557Y-83694488D01*
X210887648Y-83710500D01*
X210887649Y-83710500D01*
X211092351Y-83710500D01*
X211092352Y-83710500D01*
X211294534Y-83678477D01*
X211489219Y-83615220D01*
X211671610Y-83522287D01*
X211764590Y-83454732D01*
X211837213Y-83401971D01*
X211837215Y-83401968D01*
X211837219Y-83401966D01*
X211981966Y-83257219D01*
X211981968Y-83257215D01*
X211981971Y-83257213D01*
X212034732Y-83184590D01*
X212102287Y-83091610D01*
X212195220Y-82909219D01*
X212258477Y-82714534D01*
X212290500Y-82512352D01*
X212290500Y-82307648D01*
X212282257Y-82255606D01*
X212258477Y-82105465D01*
X212227458Y-82010000D01*
X212195220Y-81910781D01*
X212195218Y-81910778D01*
X212195218Y-81910776D01*
X212102419Y-81728650D01*
X212102287Y-81728390D01*
X212070092Y-81684077D01*
X211981971Y-81562786D01*
X211837213Y-81418028D01*
X211671614Y-81297715D01*
X211665006Y-81294348D01*
X211578917Y-81250483D01*
X211528123Y-81202511D01*
X211511328Y-81134690D01*
X211533865Y-81068555D01*
X211578917Y-81029516D01*
X211671610Y-80982287D01*
X211692770Y-80966913D01*
X211837213Y-80861971D01*
X211837215Y-80861968D01*
X211837219Y-80861966D01*
X211981966Y-80717219D01*
X211981968Y-80717215D01*
X211981971Y-80717213D01*
X212034732Y-80644590D01*
X212102287Y-80551610D01*
X212195220Y-80369219D01*
X212258477Y-80174534D01*
X212290500Y-79972352D01*
X212290500Y-79767648D01*
X212258477Y-79565466D01*
X212195220Y-79370781D01*
X212195218Y-79370778D01*
X212195218Y-79370776D01*
X212138468Y-79259400D01*
X212102287Y-79188390D01*
X212088049Y-79168793D01*
X211981971Y-79022786D01*
X211837213Y-78878028D01*
X211671614Y-78757715D01*
X211665006Y-78754348D01*
X211578917Y-78710483D01*
X211528123Y-78662511D01*
X211511328Y-78594690D01*
X211533865Y-78528555D01*
X211578917Y-78489516D01*
X211671610Y-78442287D01*
X211692770Y-78426913D01*
X211837213Y-78321971D01*
X211837215Y-78321968D01*
X211837219Y-78321966D01*
X211981966Y-78177219D01*
X211981968Y-78177215D01*
X211981971Y-78177213D01*
X212034732Y-78104590D01*
X212102287Y-78011610D01*
X212195220Y-77829219D01*
X212258477Y-77634534D01*
X212290500Y-77432352D01*
X212290500Y-77227648D01*
X212258477Y-77025466D01*
X212242773Y-76977135D01*
X221999500Y-76977135D01*
X221999500Y-78772870D01*
X221999501Y-78772876D01*
X222005908Y-78832483D01*
X222056202Y-78967328D01*
X222056206Y-78967335D01*
X222142452Y-79082544D01*
X222142455Y-79082547D01*
X222257664Y-79168793D01*
X222257673Y-79168798D01*
X222368832Y-79210257D01*
X222424766Y-79252127D01*
X222449184Y-79317592D01*
X222449500Y-79326439D01*
X222449500Y-86713696D01*
X222484104Y-86887663D01*
X222484105Y-86887666D01*
X222485575Y-86891214D01*
X222485579Y-86891235D01*
X222485583Y-86891234D01*
X222551984Y-87051542D01*
X222551985Y-87051544D01*
X222600732Y-87124499D01*
X222600734Y-87124501D01*
X222650534Y-87199034D01*
X222650538Y-87199039D01*
X223734375Y-88282874D01*
X223761255Y-88323102D01*
X223813366Y-88448911D01*
X223813371Y-88448920D01*
X223922860Y-88612781D01*
X223922863Y-88612785D01*
X224062214Y-88752136D01*
X224062218Y-88752139D01*
X224226079Y-88861628D01*
X224226092Y-88861635D01*
X224408160Y-88937049D01*
X224408165Y-88937051D01*
X224546912Y-88964649D01*
X224601971Y-88975602D01*
X224663882Y-89007987D01*
X224698456Y-89068702D01*
X224699397Y-89073027D01*
X224737947Y-89266829D01*
X224737950Y-89266839D01*
X224813364Y-89448907D01*
X224813371Y-89448920D01*
X224922860Y-89612781D01*
X224922863Y-89612785D01*
X225062214Y-89752136D01*
X225062218Y-89752139D01*
X225226079Y-89861628D01*
X225226092Y-89861635D01*
X225408160Y-89937049D01*
X225408165Y-89937051D01*
X225408169Y-89937051D01*
X225408170Y-89937052D01*
X225601456Y-89975500D01*
X225601459Y-89975500D01*
X225798543Y-89975500D01*
X225928582Y-89949632D01*
X225991835Y-89937051D01*
X226173914Y-89861632D01*
X226337782Y-89752139D01*
X226477139Y-89612782D01*
X226586632Y-89448914D01*
X226662051Y-89266835D01*
X226700500Y-89073541D01*
X226700500Y-88876459D01*
X226700500Y-88876456D01*
X226662052Y-88683170D01*
X226662051Y-88683169D01*
X226662051Y-88683165D01*
X226632897Y-88612781D01*
X226586635Y-88501092D01*
X226586628Y-88501079D01*
X226477139Y-88337218D01*
X226477136Y-88337214D01*
X226337785Y-88197863D01*
X226337781Y-88197860D01*
X226194543Y-88102151D01*
X226149738Y-88048539D01*
X226141031Y-87979214D01*
X226171186Y-87916186D01*
X226185114Y-87902913D01*
X226195322Y-87894599D01*
X226619597Y-87470322D01*
X226684855Y-87390215D01*
X226763593Y-87233433D01*
X226804054Y-87062721D01*
X226804054Y-86887279D01*
X226763593Y-86716567D01*
X226763593Y-86716566D01*
X226695728Y-86581435D01*
X226684855Y-86559785D01*
X226684853Y-86559782D01*
X226684850Y-86559778D01*
X226619608Y-86479689D01*
X226619602Y-86479682D01*
X226619599Y-86479678D01*
X226195322Y-86055403D01*
X226195314Y-86055396D01*
X226195308Y-86055391D01*
X226115222Y-85990150D01*
X226115216Y-85990146D01*
X226115215Y-85990145D01*
X226036472Y-85950599D01*
X225958430Y-85911405D01*
X225787728Y-85870947D01*
X225787723Y-85870946D01*
X225787721Y-85870946D01*
X225612279Y-85870946D01*
X225612277Y-85870946D01*
X225612271Y-85870947D01*
X225441566Y-85911406D01*
X225284784Y-85990145D01*
X225284778Y-85990149D01*
X225204689Y-86055391D01*
X225204671Y-86055407D01*
X224780410Y-86479670D01*
X224780399Y-86479682D01*
X224731450Y-86539769D01*
X224673846Y-86579312D01*
X224604009Y-86581435D01*
X224547632Y-86549132D01*
X224286819Y-86288319D01*
X224253334Y-86226996D01*
X224250500Y-86200638D01*
X224250500Y-79326439D01*
X224270185Y-79259400D01*
X224322989Y-79213645D01*
X224331168Y-79210257D01*
X224442326Y-79168798D01*
X224442326Y-79168797D01*
X224442331Y-79168796D01*
X224557546Y-79082546D01*
X224643796Y-78967331D01*
X224692810Y-78835916D01*
X224734681Y-78779984D01*
X224800145Y-78755566D01*
X224868418Y-78770417D01*
X224896673Y-78791569D01*
X225010213Y-78905109D01*
X225182179Y-79030048D01*
X225182181Y-79030049D01*
X225182184Y-79030051D01*
X225371588Y-79126557D01*
X225573757Y-79192246D01*
X225783713Y-79225500D01*
X225783714Y-79225500D01*
X225996286Y-79225500D01*
X225996287Y-79225500D01*
X226206243Y-79192246D01*
X226408412Y-79126557D01*
X226597816Y-79030051D01*
X226684138Y-78967335D01*
X226769786Y-78905109D01*
X226769788Y-78905106D01*
X226769792Y-78905104D01*
X226920104Y-78754792D01*
X226920106Y-78754788D01*
X226920109Y-78754786D01*
X227045048Y-78582820D01*
X227045047Y-78582820D01*
X227045051Y-78582816D01*
X227049514Y-78574054D01*
X227097488Y-78523259D01*
X227165308Y-78506463D01*
X227231444Y-78528999D01*
X227270486Y-78574056D01*
X227274951Y-78582820D01*
X227399890Y-78754786D01*
X227550213Y-78905109D01*
X227722179Y-79030048D01*
X227722181Y-79030049D01*
X227722184Y-79030051D01*
X227911588Y-79126557D01*
X228113757Y-79192246D01*
X228323713Y-79225500D01*
X228323714Y-79225500D01*
X228536286Y-79225500D01*
X228536287Y-79225500D01*
X228746243Y-79192246D01*
X228948412Y-79126557D01*
X229137816Y-79030051D01*
X229224138Y-78967335D01*
X229309786Y-78905109D01*
X229309788Y-78905106D01*
X229309792Y-78905104D01*
X229460104Y-78754792D01*
X229460106Y-78754788D01*
X229460109Y-78754786D01*
X229585048Y-78582820D01*
X229585047Y-78582820D01*
X229585051Y-78582816D01*
X229681557Y-78393412D01*
X229747246Y-78191243D01*
X229780500Y-77981287D01*
X229780500Y-77768713D01*
X229747246Y-77558757D01*
X229681557Y-77356588D01*
X229585051Y-77167184D01*
X229585049Y-77167181D01*
X229585048Y-77167179D01*
X229460109Y-76995213D01*
X229309786Y-76844890D01*
X229137820Y-76719951D01*
X228948414Y-76623444D01*
X228948413Y-76623443D01*
X228948412Y-76623443D01*
X228746243Y-76557754D01*
X228746241Y-76557753D01*
X228746240Y-76557753D01*
X228584957Y-76532208D01*
X228536287Y-76524500D01*
X228323713Y-76524500D01*
X228275042Y-76532208D01*
X228113760Y-76557753D01*
X227911585Y-76623444D01*
X227722179Y-76719951D01*
X227550213Y-76844890D01*
X227399890Y-76995213D01*
X227274949Y-77167182D01*
X227270484Y-77175946D01*
X227222509Y-77226742D01*
X227154688Y-77243536D01*
X227088553Y-77220998D01*
X227049516Y-77175946D01*
X227045050Y-77167182D01*
X226920109Y-76995213D01*
X226769786Y-76844890D01*
X226597820Y-76719951D01*
X226408414Y-76623444D01*
X226408413Y-76623443D01*
X226408412Y-76623443D01*
X226206243Y-76557754D01*
X226206241Y-76557753D01*
X226206240Y-76557753D01*
X226044957Y-76532208D01*
X225996287Y-76524500D01*
X225783713Y-76524500D01*
X225735042Y-76532208D01*
X225573760Y-76557753D01*
X225371585Y-76623444D01*
X225182179Y-76719951D01*
X225010215Y-76844889D01*
X224896673Y-76958431D01*
X224835350Y-76991915D01*
X224765658Y-76986931D01*
X224709725Y-76945059D01*
X224692810Y-76914082D01*
X224643797Y-76782671D01*
X224643793Y-76782664D01*
X224557547Y-76667455D01*
X224557544Y-76667452D01*
X224442335Y-76581206D01*
X224442328Y-76581202D01*
X224307482Y-76530908D01*
X224307483Y-76530908D01*
X224247883Y-76524501D01*
X224247881Y-76524500D01*
X224247873Y-76524500D01*
X224247864Y-76524500D01*
X222452129Y-76524500D01*
X222452123Y-76524501D01*
X222392516Y-76530908D01*
X222257671Y-76581202D01*
X222257664Y-76581206D01*
X222142455Y-76667452D01*
X222142452Y-76667455D01*
X222056206Y-76782664D01*
X222056202Y-76782671D01*
X222005908Y-76917517D01*
X221999501Y-76977116D01*
X221999500Y-76977135D01*
X212242773Y-76977135D01*
X212195220Y-76830781D01*
X212102287Y-76648390D01*
X212073608Y-76608916D01*
X211981971Y-76482786D01*
X211837213Y-76338028D01*
X211671614Y-76217715D01*
X211665006Y-76214348D01*
X211578917Y-76170483D01*
X211528123Y-76122511D01*
X211511328Y-76054690D01*
X211533865Y-75988555D01*
X211578917Y-75949516D01*
X211671610Y-75902287D01*
X211692770Y-75886913D01*
X211837213Y-75781971D01*
X211837215Y-75781968D01*
X211837219Y-75781966D01*
X211981966Y-75637219D01*
X211981968Y-75637215D01*
X211981971Y-75637213D01*
X212086892Y-75492799D01*
X212102287Y-75471610D01*
X212195220Y-75289219D01*
X212258477Y-75094534D01*
X212290500Y-74892352D01*
X212290500Y-74687648D01*
X212258477Y-74485466D01*
X212195220Y-74290781D01*
X212195218Y-74290778D01*
X212195218Y-74290776D01*
X212143865Y-74189991D01*
X212102287Y-74108390D01*
X212073608Y-74068916D01*
X211981971Y-73942786D01*
X211837213Y-73798028D01*
X211671613Y-73677715D01*
X211671612Y-73677714D01*
X211671610Y-73677713D01*
X211611898Y-73647288D01*
X211489223Y-73584781D01*
X211294534Y-73521522D01*
X211119995Y-73493878D01*
X211092352Y-73489500D01*
X210887648Y-73489500D01*
X210863329Y-73493351D01*
X210685465Y-73521522D01*
X210490776Y-73584781D01*
X210308386Y-73677715D01*
X210142786Y-73798028D01*
X209998028Y-73942786D01*
X209877715Y-74108386D01*
X209784781Y-74290776D01*
X209721522Y-74485465D01*
X209689500Y-74687648D01*
X204670499Y-74687648D01*
X204670499Y-74189992D01*
X204667040Y-74156135D01*
X204659999Y-74087203D01*
X204659998Y-74087200D01*
X204634268Y-74009553D01*
X204604814Y-73920666D01*
X204512712Y-73771344D01*
X204388656Y-73647288D01*
X204239334Y-73555186D01*
X204072797Y-73500001D01*
X204072795Y-73500000D01*
X203970010Y-73489500D01*
X202769998Y-73489500D01*
X202769981Y-73489501D01*
X202667203Y-73500000D01*
X202667200Y-73500001D01*
X202500668Y-73555185D01*
X202500663Y-73555187D01*
X202351342Y-73647289D01*
X202227289Y-73771342D01*
X202135187Y-73920663D01*
X202135186Y-73920666D01*
X202080001Y-74087203D01*
X202080001Y-74087204D01*
X202080000Y-74087204D01*
X202069500Y-74189983D01*
X189286269Y-74189983D01*
X189239681Y-74156135D01*
X189145969Y-74108386D01*
X189068506Y-74068916D01*
X188885802Y-74009553D01*
X188790928Y-73994526D01*
X188696055Y-73979500D01*
X188503945Y-73979500D01*
X188440696Y-73989517D01*
X188314197Y-74009553D01*
X188131493Y-74068916D01*
X187960318Y-74156135D01*
X187871645Y-74220560D01*
X187804898Y-74269055D01*
X187804896Y-74269057D01*
X187804895Y-74269057D01*
X187669057Y-74404895D01*
X187669057Y-74404896D01*
X187669055Y-74404898D01*
X187620560Y-74471645D01*
X187556135Y-74560318D01*
X187468916Y-74731493D01*
X187409553Y-74914197D01*
X187379500Y-75103945D01*
X181200500Y-75103945D01*
X181200500Y-72563984D01*
X182300000Y-72563984D01*
X182300000Y-72756015D01*
X182330040Y-72945684D01*
X182389383Y-73128321D01*
X182476561Y-73299415D01*
X182497798Y-73328646D01*
X183120000Y-72706445D01*
X183120000Y-72712661D01*
X183147259Y-72814394D01*
X183199920Y-72905606D01*
X183274394Y-72980080D01*
X183365606Y-73032741D01*
X183467339Y-73060000D01*
X183473554Y-73060000D01*
X182851351Y-73682200D01*
X182851352Y-73682201D01*
X182880577Y-73703434D01*
X183051678Y-73790616D01*
X183234315Y-73849959D01*
X183423985Y-73880000D01*
X183616015Y-73880000D01*
X183805684Y-73849959D01*
X183988321Y-73790616D01*
X184159419Y-73703436D01*
X184188646Y-73682201D01*
X184188646Y-73682200D01*
X183566447Y-73060000D01*
X183572661Y-73060000D01*
X183674394Y-73032741D01*
X183765606Y-72980080D01*
X183840080Y-72905606D01*
X183892741Y-72814394D01*
X183920000Y-72712661D01*
X183920000Y-72706446D01*
X184542200Y-73328646D01*
X184542201Y-73328646D01*
X184563436Y-73299419D01*
X184650616Y-73128321D01*
X184709959Y-72945684D01*
X184740000Y-72756015D01*
X184740000Y-72563984D01*
X184709959Y-72374315D01*
X184650616Y-72191678D01*
X184563434Y-72020577D01*
X184542201Y-71991352D01*
X184542200Y-71991351D01*
X183920000Y-72613552D01*
X183920000Y-72607339D01*
X183892741Y-72505606D01*
X183840080Y-72414394D01*
X183765606Y-72339920D01*
X183674394Y-72287259D01*
X183572661Y-72260000D01*
X183566447Y-72260000D01*
X184188646Y-71637798D01*
X184159415Y-71616561D01*
X183988321Y-71529383D01*
X183805684Y-71470040D01*
X183616015Y-71440000D01*
X183423985Y-71440000D01*
X183234315Y-71470040D01*
X183051678Y-71529383D01*
X182880578Y-71616564D01*
X182851352Y-71637798D01*
X182851351Y-71637798D01*
X183473554Y-72260000D01*
X183467339Y-72260000D01*
X183365606Y-72287259D01*
X183274394Y-72339920D01*
X183199920Y-72414394D01*
X183147259Y-72505606D01*
X183120000Y-72607339D01*
X183120000Y-72613553D01*
X182497798Y-71991351D01*
X182497798Y-71991352D01*
X182476564Y-72020578D01*
X182389383Y-72191678D01*
X182330040Y-72374315D01*
X182300000Y-72563984D01*
X181200500Y-72563984D01*
X181200500Y-65977135D01*
X204659500Y-65977135D01*
X204659500Y-67572870D01*
X204659501Y-67572876D01*
X204665908Y-67632483D01*
X204716202Y-67767328D01*
X204716206Y-67767335D01*
X204802452Y-67882544D01*
X204802455Y-67882547D01*
X204917664Y-67968793D01*
X204917671Y-67968797D01*
X205052517Y-68019091D01*
X205052516Y-68019091D01*
X205059444Y-68019835D01*
X205112127Y-68025500D01*
X206257872Y-68025499D01*
X206317483Y-68019091D01*
X206452331Y-67968796D01*
X206453430Y-67967972D01*
X206454717Y-67967492D01*
X206460112Y-67964547D01*
X206460535Y-67965322D01*
X206518887Y-67943552D01*
X206575198Y-67952673D01*
X206655873Y-67986091D01*
X206821777Y-68019091D01*
X206853992Y-68025499D01*
X206853996Y-68025500D01*
X206853997Y-68025500D01*
X207056004Y-68025500D01*
X207056005Y-68025499D01*
X207254127Y-67986091D01*
X207440756Y-67908786D01*
X207521110Y-67855094D01*
X207587786Y-67834217D01*
X207655166Y-67852701D01*
X207658865Y-67855078D01*
X207739244Y-67908786D01*
X207925873Y-67986091D01*
X208091777Y-68019091D01*
X208123992Y-68025499D01*
X208123996Y-68025500D01*
X208123997Y-68025500D01*
X208326004Y-68025500D01*
X208326005Y-68025499D01*
X208524127Y-67986091D01*
X208710756Y-67908786D01*
X208878718Y-67796558D01*
X208900498Y-67774778D01*
X224624500Y-67774778D01*
X224624500Y-67995222D01*
X224629296Y-68025500D01*
X224658985Y-68212952D01*
X224727103Y-68422603D01*
X224727104Y-68422606D01*
X224827187Y-68619025D01*
X224956752Y-68797358D01*
X224956756Y-68797363D01*
X225006928Y-68847535D01*
X225040413Y-68908858D01*
X225035429Y-68978550D01*
X224993557Y-69034483D01*
X224962581Y-69051398D01*
X224882669Y-69081203D01*
X224882664Y-69081206D01*
X224767455Y-69167452D01*
X224767452Y-69167455D01*
X224681206Y-69282664D01*
X224681202Y-69282671D01*
X224630908Y-69417517D01*
X224624501Y-69477116D01*
X224624501Y-69477123D01*
X224624500Y-69477135D01*
X224624500Y-71372870D01*
X224624501Y-71372876D01*
X224630908Y-71432483D01*
X224681202Y-71567328D01*
X224681206Y-71567335D01*
X224767452Y-71682544D01*
X224767455Y-71682547D01*
X224882664Y-71768793D01*
X224882671Y-71768797D01*
X225017517Y-71819091D01*
X225017516Y-71819091D01*
X225024444Y-71819835D01*
X225077127Y-71825500D01*
X226972872Y-71825499D01*
X227032483Y-71819091D01*
X227167331Y-71768796D01*
X227282546Y-71682546D01*
X227368796Y-71567331D01*
X227419091Y-71432483D01*
X227425500Y-71372873D01*
X227425499Y-69477128D01*
X227419091Y-69417517D01*
X227368796Y-69282669D01*
X227368795Y-69282668D01*
X227368793Y-69282664D01*
X227282547Y-69167455D01*
X227282544Y-69167452D01*
X227167335Y-69081206D01*
X227167328Y-69081202D01*
X227087419Y-69051398D01*
X227031485Y-69009527D01*
X227007068Y-68944062D01*
X227021920Y-68875789D01*
X227043069Y-68847537D01*
X227093242Y-68797365D01*
X227222815Y-68619022D01*
X227322895Y-68422606D01*
X227391015Y-68212951D01*
X227425500Y-67995222D01*
X227425500Y-67774778D01*
X227391015Y-67557049D01*
X227322895Y-67347394D01*
X227322895Y-67347393D01*
X227288237Y-67279375D01*
X227222815Y-67150978D01*
X227186506Y-67101003D01*
X227093247Y-66972641D01*
X227093243Y-66972636D01*
X226937363Y-66816756D01*
X226937358Y-66816752D01*
X226759025Y-66687187D01*
X226759024Y-66687186D01*
X226759022Y-66687185D01*
X226696096Y-66655122D01*
X226562606Y-66587104D01*
X226562603Y-66587103D01*
X226352952Y-66518985D01*
X226244086Y-66501742D01*
X226135222Y-66484500D01*
X225914778Y-66484500D01*
X225842201Y-66495995D01*
X225697047Y-66518985D01*
X225487396Y-66587103D01*
X225487393Y-66587104D01*
X225290974Y-66687187D01*
X225112641Y-66816752D01*
X225112636Y-66816756D01*
X224956756Y-66972636D01*
X224956752Y-66972641D01*
X224827187Y-67150974D01*
X224727104Y-67347393D01*
X224727103Y-67347396D01*
X224658985Y-67557047D01*
X224639159Y-67682225D01*
X224624500Y-67774778D01*
X208900498Y-67774778D01*
X208907948Y-67767328D01*
X208993052Y-67682225D01*
X209021555Y-67653721D01*
X209021558Y-67653718D01*
X209133782Y-67485762D01*
X209133782Y-67485761D01*
X209133786Y-67485756D01*
X209211091Y-67299127D01*
X209250500Y-67101003D01*
X209250500Y-66448997D01*
X209211091Y-66250873D01*
X209133786Y-66064244D01*
X209133784Y-66064241D01*
X209133782Y-66064237D01*
X209021558Y-65896281D01*
X208878718Y-65753441D01*
X208710762Y-65641217D01*
X208710752Y-65641212D01*
X208524127Y-65563909D01*
X208524119Y-65563907D01*
X208326007Y-65524500D01*
X208326003Y-65524500D01*
X208123997Y-65524500D01*
X208123992Y-65524500D01*
X207925880Y-65563907D01*
X207925872Y-65563909D01*
X207739244Y-65641213D01*
X207658891Y-65694904D01*
X207592213Y-65715782D01*
X207524833Y-65697297D01*
X207521109Y-65694904D01*
X207440755Y-65641213D01*
X207254127Y-65563909D01*
X207254119Y-65563907D01*
X207056007Y-65524500D01*
X207056003Y-65524500D01*
X206853997Y-65524500D01*
X206853992Y-65524500D01*
X206655880Y-65563907D01*
X206655868Y-65563910D01*
X206575198Y-65597325D01*
X206505729Y-65604794D01*
X206460342Y-65585036D01*
X206460114Y-65585454D01*
X206455447Y-65582905D01*
X206453432Y-65582028D01*
X206452331Y-65581204D01*
X206452330Y-65581203D01*
X206452328Y-65581202D01*
X206317482Y-65530908D01*
X206317483Y-65530908D01*
X206257883Y-65524501D01*
X206257881Y-65524500D01*
X206257873Y-65524500D01*
X206257864Y-65524500D01*
X205112129Y-65524500D01*
X205112123Y-65524501D01*
X205052516Y-65530908D01*
X204917671Y-65581202D01*
X204917664Y-65581206D01*
X204802455Y-65667452D01*
X204802452Y-65667455D01*
X204716206Y-65782664D01*
X204716202Y-65782671D01*
X204665908Y-65917517D01*
X204659501Y-65977116D01*
X204659500Y-65977135D01*
X181200500Y-65977135D01*
X181200500Y-54259568D01*
X182849500Y-54259568D01*
X182849500Y-54540431D01*
X182880942Y-54819494D01*
X182880945Y-54819512D01*
X182943439Y-55093317D01*
X182943443Y-55093329D01*
X183036200Y-55358411D01*
X183158053Y-55611442D01*
X183158055Y-55611445D01*
X183307477Y-55849248D01*
X183482584Y-56068825D01*
X183681175Y-56267416D01*
X183900752Y-56442523D01*
X184138555Y-56591945D01*
X184391592Y-56713801D01*
X184590680Y-56783465D01*
X184656670Y-56806556D01*
X184656682Y-56806560D01*
X184930491Y-56869055D01*
X184930497Y-56869055D01*
X184930505Y-56869057D01*
X185116547Y-56890018D01*
X185209569Y-56900499D01*
X185209572Y-56900500D01*
X185209575Y-56900500D01*
X185490428Y-56900500D01*
X185490429Y-56900499D01*
X185633055Y-56884429D01*
X185769494Y-56869057D01*
X185769499Y-56869056D01*
X185769509Y-56869055D01*
X186043318Y-56806560D01*
X186308408Y-56713801D01*
X186561445Y-56591945D01*
X186799248Y-56442523D01*
X187018825Y-56267416D01*
X187217416Y-56068825D01*
X187392523Y-55849248D01*
X187541945Y-55611445D01*
X187663801Y-55358408D01*
X187756560Y-55093318D01*
X187819055Y-54819509D01*
X187850500Y-54540425D01*
X187850500Y-54259575D01*
X187824645Y-54030102D01*
X187819057Y-53980505D01*
X187819054Y-53980487D01*
X187756560Y-53706682D01*
X187756556Y-53706670D01*
X187733465Y-53640680D01*
X187663801Y-53441592D01*
X187541945Y-53188555D01*
X187392523Y-52950752D01*
X187217416Y-52731175D01*
X187018825Y-52532584D01*
X186799248Y-52357477D01*
X186561445Y-52208055D01*
X186561442Y-52208053D01*
X186393414Y-52127135D01*
X200974500Y-52127135D01*
X200974500Y-53922870D01*
X200974501Y-53922876D01*
X200980908Y-53982483D01*
X201031202Y-54117328D01*
X201031206Y-54117335D01*
X201117452Y-54232544D01*
X201117455Y-54232547D01*
X201232664Y-54318793D01*
X201232671Y-54318797D01*
X201364082Y-54367810D01*
X201420016Y-54409681D01*
X201444433Y-54475145D01*
X201429582Y-54543418D01*
X201408431Y-54571673D01*
X201294889Y-54685215D01*
X201169951Y-54857179D01*
X201073444Y-55046585D01*
X201007753Y-55248760D01*
X200974500Y-55458713D01*
X200974500Y-55671286D01*
X201004083Y-55858069D01*
X201007754Y-55881243D01*
X201068703Y-56068825D01*
X201073444Y-56083414D01*
X201169951Y-56272820D01*
X201294890Y-56444786D01*
X201445213Y-56595109D01*
X201617182Y-56720050D01*
X201625946Y-56724516D01*
X201676742Y-56772491D01*
X201693536Y-56840312D01*
X201670998Y-56906447D01*
X201625946Y-56945484D01*
X201617182Y-56949949D01*
X201445213Y-57074890D01*
X201294890Y-57225213D01*
X201169951Y-57397179D01*
X201073444Y-57586585D01*
X201007753Y-57788760D01*
X200975101Y-57994920D01*
X200974500Y-57998713D01*
X200974500Y-58211287D01*
X201007754Y-58421243D01*
X201066058Y-58600684D01*
X201073444Y-58623414D01*
X201169951Y-58812820D01*
X201294890Y-58984786D01*
X201445213Y-59135109D01*
X201617179Y-59260048D01*
X201617181Y-59260049D01*
X201617184Y-59260051D01*
X201626493Y-59264794D01*
X201677290Y-59312766D01*
X201694087Y-59380587D01*
X201671552Y-59446722D01*
X201626505Y-59485760D01*
X201617446Y-59490376D01*
X201617440Y-59490380D01*
X201563282Y-59529727D01*
X201563282Y-59529728D01*
X202195591Y-60162037D01*
X202132007Y-60179075D01*
X202017993Y-60244901D01*
X201924901Y-60337993D01*
X201859075Y-60452007D01*
X201842037Y-60515591D01*
X201209728Y-59883282D01*
X201209727Y-59883282D01*
X201170380Y-59937439D01*
X201073904Y-60126782D01*
X201008242Y-60328869D01*
X201008242Y-60328872D01*
X200975000Y-60538753D01*
X200975000Y-60751246D01*
X201008242Y-60961127D01*
X201008242Y-60961130D01*
X201073904Y-61163217D01*
X201170375Y-61352550D01*
X201209728Y-61406716D01*
X201842037Y-60774408D01*
X201859075Y-60837993D01*
X201924901Y-60952007D01*
X202017993Y-61045099D01*
X202132007Y-61110925D01*
X202195590Y-61127962D01*
X201563282Y-61760269D01*
X201563282Y-61760270D01*
X201617449Y-61799624D01*
X201806782Y-61896095D01*
X202008870Y-61961757D01*
X202218754Y-61995000D01*
X202431246Y-61995000D01*
X202641127Y-61961757D01*
X202641130Y-61961757D01*
X202843217Y-61896095D01*
X203032554Y-61799622D01*
X203086716Y-61760270D01*
X203086717Y-61760270D01*
X202454408Y-61127962D01*
X202517993Y-61110925D01*
X202632007Y-61045099D01*
X202725099Y-60952007D01*
X202790925Y-60837993D01*
X202807962Y-60774408D01*
X203440270Y-61406717D01*
X203440270Y-61406716D01*
X203479622Y-61352554D01*
X203576095Y-61163217D01*
X203641757Y-60961130D01*
X203641757Y-60961127D01*
X203675000Y-60751246D01*
X203675000Y-60538753D01*
X203641757Y-60328872D01*
X203641757Y-60328869D01*
X203576095Y-60126782D01*
X203479624Y-59937449D01*
X203440270Y-59883282D01*
X203440269Y-59883282D01*
X202807962Y-60515590D01*
X202790925Y-60452007D01*
X202725099Y-60337993D01*
X202632007Y-60244901D01*
X202517993Y-60179075D01*
X202454409Y-60162037D01*
X203086716Y-59529728D01*
X203032547Y-59490373D01*
X203032547Y-59490372D01*
X203023500Y-59485763D01*
X203020522Y-59482951D01*
X203016553Y-59481939D01*
X202995334Y-59459160D01*
X202972706Y-59437788D01*
X202971721Y-59433811D01*
X202968929Y-59430814D01*
X202963393Y-59400179D01*
X202955912Y-59369966D01*
X202957233Y-59366088D01*
X202956505Y-59362058D01*
X202968407Y-59333300D01*
X202978451Y-59303832D01*
X202982108Y-59300199D01*
X202983226Y-59297500D01*
X202992001Y-59290374D01*
X203009051Y-59273443D01*
X203015979Y-59268629D01*
X203032816Y-59260051D01*
X203130797Y-59188863D01*
X203130813Y-59188853D01*
X203204785Y-59135109D01*
X203204783Y-59135109D01*
X203204792Y-59135104D01*
X203355104Y-58984792D01*
X203355106Y-58984788D01*
X203355109Y-58984786D01*
X203480048Y-58812820D01*
X203480047Y-58812820D01*
X203480051Y-58812816D01*
X203576557Y-58623412D01*
X203642246Y-58421243D01*
X203674281Y-58218984D01*
X226260000Y-58218984D01*
X226260000Y-58411015D01*
X226290040Y-58600684D01*
X226349383Y-58783321D01*
X226436561Y-58954415D01*
X226457798Y-58983646D01*
X227080000Y-58361445D01*
X227080000Y-58367661D01*
X227107259Y-58469394D01*
X227159920Y-58560606D01*
X227234394Y-58635080D01*
X227325606Y-58687741D01*
X227427339Y-58715000D01*
X227433554Y-58715000D01*
X226811351Y-59337200D01*
X226811352Y-59337201D01*
X226840577Y-59358434D01*
X227011678Y-59445616D01*
X227194315Y-59504959D01*
X227383985Y-59535000D01*
X227576015Y-59535000D01*
X227765684Y-59504959D01*
X227948321Y-59445616D01*
X228119419Y-59358436D01*
X228148646Y-59337201D01*
X228148646Y-59337200D01*
X227526447Y-58715000D01*
X227532661Y-58715000D01*
X227634394Y-58687741D01*
X227725606Y-58635080D01*
X227800080Y-58560606D01*
X227852741Y-58469394D01*
X227880000Y-58367661D01*
X227880000Y-58361446D01*
X228502200Y-58983646D01*
X228502201Y-58983646D01*
X228523436Y-58954419D01*
X228610616Y-58783321D01*
X228669959Y-58600684D01*
X228700000Y-58411015D01*
X228700000Y-58218984D01*
X228669959Y-58029315D01*
X228610616Y-57846678D01*
X228523434Y-57675577D01*
X228502201Y-57646352D01*
X228502200Y-57646351D01*
X227880000Y-58268552D01*
X227880000Y-58262339D01*
X227852741Y-58160606D01*
X227800080Y-58069394D01*
X227725606Y-57994920D01*
X227634394Y-57942259D01*
X227532661Y-57915000D01*
X227526447Y-57915000D01*
X228148646Y-57292798D01*
X228119415Y-57271561D01*
X227948321Y-57184383D01*
X227765684Y-57125040D01*
X227576015Y-57095000D01*
X227383985Y-57095000D01*
X227194315Y-57125040D01*
X227011678Y-57184383D01*
X226840578Y-57271564D01*
X226811352Y-57292798D01*
X226811351Y-57292798D01*
X227433554Y-57915000D01*
X227427339Y-57915000D01*
X227325606Y-57942259D01*
X227234394Y-57994920D01*
X227159920Y-58069394D01*
X227107259Y-58160606D01*
X227080000Y-58262339D01*
X227080000Y-58268553D01*
X226457798Y-57646351D01*
X226457798Y-57646352D01*
X226436564Y-57675578D01*
X226349383Y-57846678D01*
X226290040Y-58029315D01*
X226260000Y-58218984D01*
X203674281Y-58218984D01*
X203675500Y-58211287D01*
X203675500Y-57998713D01*
X203642246Y-57788757D01*
X203576557Y-57586588D01*
X203480051Y-57397184D01*
X203480049Y-57397180D01*
X203355109Y-57225213D01*
X203204786Y-57074890D01*
X203032820Y-56949951D01*
X203032115Y-56949591D01*
X203024054Y-56945485D01*
X202973259Y-56897512D01*
X202956463Y-56829692D01*
X202978999Y-56763556D01*
X203024054Y-56724515D01*
X203032816Y-56720051D01*
X203054789Y-56704086D01*
X203204786Y-56595109D01*
X203204788Y-56595106D01*
X203204792Y-56595104D01*
X203355104Y-56444792D01*
X203355106Y-56444788D01*
X203355109Y-56444786D01*
X203480048Y-56272820D01*
X203480047Y-56272820D01*
X203480051Y-56272816D01*
X203576557Y-56083412D01*
X203642246Y-55881243D01*
X203674287Y-55678945D01*
X221179500Y-55678945D01*
X221179500Y-55871054D01*
X221209553Y-56060802D01*
X221268916Y-56243506D01*
X221356135Y-56414681D01*
X221469055Y-56570102D01*
X221604898Y-56705945D01*
X221760319Y-56818865D01*
X221828182Y-56853443D01*
X221931493Y-56906083D01*
X222022845Y-56935764D01*
X222114199Y-56965447D01*
X222303945Y-56995500D01*
X222303946Y-56995500D01*
X222496054Y-56995500D01*
X222496055Y-56995500D01*
X222685801Y-56965447D01*
X222868509Y-56906082D01*
X223039681Y-56818865D01*
X223195102Y-56705945D01*
X223330945Y-56570102D01*
X223443865Y-56414681D01*
X223531082Y-56243509D01*
X223590447Y-56060801D01*
X223620500Y-55871055D01*
X223620500Y-55678945D01*
X223590447Y-55489199D01*
X223531082Y-55306491D01*
X223443865Y-55135319D01*
X223330945Y-54979898D01*
X223195102Y-54844055D01*
X223039681Y-54731135D01*
X222868506Y-54643916D01*
X222685802Y-54584553D01*
X222590928Y-54569526D01*
X222496055Y-54554500D01*
X222303945Y-54554500D01*
X222240696Y-54564517D01*
X222114197Y-54584553D01*
X221931493Y-54643916D01*
X221760318Y-54731135D01*
X221734283Y-54750051D01*
X221604898Y-54844055D01*
X221604896Y-54844057D01*
X221604895Y-54844057D01*
X221469057Y-54979895D01*
X221469057Y-54979896D01*
X221469055Y-54979898D01*
X221420604Y-55046585D01*
X221356135Y-55135318D01*
X221268916Y-55306493D01*
X221209553Y-55489197D01*
X221179500Y-55678945D01*
X203674287Y-55678945D01*
X203675500Y-55671287D01*
X203675500Y-55458713D01*
X203642246Y-55248757D01*
X203576557Y-55046588D01*
X203480051Y-54857184D01*
X203480049Y-54857181D01*
X203480048Y-54857179D01*
X203355109Y-54685213D01*
X203241569Y-54571673D01*
X203208084Y-54510350D01*
X203213068Y-54440658D01*
X203254940Y-54384725D01*
X203285915Y-54367810D01*
X203417331Y-54318796D01*
X203532546Y-54232546D01*
X203618796Y-54117331D01*
X203669091Y-53982483D01*
X203675500Y-53922873D01*
X203675499Y-53138945D01*
X226259500Y-53138945D01*
X226259500Y-53331054D01*
X226289553Y-53520802D01*
X226348916Y-53703506D01*
X226411415Y-53826166D01*
X226436135Y-53874681D01*
X226549055Y-54030102D01*
X226684898Y-54165945D01*
X226840319Y-54278865D01*
X226918682Y-54318793D01*
X227011493Y-54366083D01*
X227102845Y-54395764D01*
X227194199Y-54425447D01*
X227383945Y-54455500D01*
X227383946Y-54455500D01*
X227576054Y-54455500D01*
X227576055Y-54455500D01*
X227765801Y-54425447D01*
X227948509Y-54366082D01*
X228119681Y-54278865D01*
X228275102Y-54165945D01*
X228410945Y-54030102D01*
X228523865Y-53874681D01*
X228611082Y-53703509D01*
X228670447Y-53520801D01*
X228700500Y-53331055D01*
X228700500Y-53138945D01*
X228670447Y-52949199D01*
X228611082Y-52766491D01*
X228523865Y-52595319D01*
X228410945Y-52439898D01*
X228275102Y-52304055D01*
X228119681Y-52191135D01*
X227994075Y-52127135D01*
X227948506Y-52103916D01*
X227765802Y-52044553D01*
X227670928Y-52029526D01*
X227576055Y-52014500D01*
X227383945Y-52014500D01*
X227320696Y-52024517D01*
X227194197Y-52044553D01*
X227011493Y-52103916D01*
X226840318Y-52191135D01*
X226751645Y-52255560D01*
X226684898Y-52304055D01*
X226684896Y-52304057D01*
X226684895Y-52304057D01*
X226549057Y-52439895D01*
X226549057Y-52439896D01*
X226549055Y-52439898D01*
X226500560Y-52506645D01*
X226436135Y-52595318D01*
X226348916Y-52766493D01*
X226289553Y-52949197D01*
X226259500Y-53138945D01*
X203675499Y-53138945D01*
X203675499Y-53014643D01*
X203675499Y-52127129D01*
X203675498Y-52127123D01*
X203675497Y-52127116D01*
X203669091Y-52067517D01*
X203641463Y-51993443D01*
X203618797Y-51932671D01*
X203618793Y-51932664D01*
X203532547Y-51817455D01*
X203532544Y-51817452D01*
X203417335Y-51731206D01*
X203417328Y-51731202D01*
X203282482Y-51680908D01*
X203282483Y-51680908D01*
X203222883Y-51674501D01*
X203222881Y-51674500D01*
X203222873Y-51674500D01*
X203222864Y-51674500D01*
X201427129Y-51674500D01*
X201427123Y-51674501D01*
X201367516Y-51680908D01*
X201232671Y-51731202D01*
X201232664Y-51731206D01*
X201117455Y-51817452D01*
X201117452Y-51817455D01*
X201031206Y-51932664D01*
X201031202Y-51932671D01*
X200980908Y-52067517D01*
X200976995Y-52103918D01*
X200974501Y-52127123D01*
X200974500Y-52127135D01*
X186393414Y-52127135D01*
X186308411Y-52086200D01*
X186043329Y-51993443D01*
X186043317Y-51993439D01*
X185769512Y-51930945D01*
X185769494Y-51930942D01*
X185490431Y-51899500D01*
X185490425Y-51899500D01*
X185209575Y-51899500D01*
X185209568Y-51899500D01*
X184930505Y-51930942D01*
X184930487Y-51930945D01*
X184656682Y-51993439D01*
X184656670Y-51993443D01*
X184391588Y-52086200D01*
X184138557Y-52208053D01*
X183900753Y-52357476D01*
X183681175Y-52532583D01*
X183482583Y-52731175D01*
X183307476Y-52950753D01*
X183158053Y-53188557D01*
X183036200Y-53441588D01*
X182943443Y-53706670D01*
X182943439Y-53706682D01*
X182880945Y-53980487D01*
X182880942Y-53980505D01*
X182849500Y-54259568D01*
X181200500Y-54259568D01*
X181200500Y-50549500D01*
X181220185Y-50482461D01*
X181272989Y-50436706D01*
X181324500Y-50425500D01*
X230075500Y-50425500D01*
X230142539Y-50445185D01*
G37*
%TD.AperFunction*%
%TD*%
M02*
