%TF.GenerationSoftware,KiCad,Pcbnew,10.0.1*%
%TF.CreationDate,2026-08-26T18:43:47+03:00*%
%TF.ProjectId,Lazer-amplitude-modulation,4c617a65-722d-4616-9d70-6c6974756465,rev?*%
%TF.SameCoordinates,Original*%
%TF.FileFunction,Legend,Bot*%
%TF.FilePolarity,Positive*%
%FSLAX46Y46*%
G04 Gerber Fmt 4.6, Leading zero omitted, Abs format (unit mm)*
G04 Created by KiCad (PCBNEW 10.0.1) date 2026-08-26 18:43:47*
%MOMM*%
%LPD*%
G01*
G04 APERTURE LIST*
%ADD10C,0.100000*%
G04 APERTURE END LIST*
D10*
X205544048Y-89887475D02*
X205544048Y-88887475D01*
X205544048Y-88887475D02*
X205305953Y-88887475D01*
X205305953Y-88887475D02*
X205163096Y-88935094D01*
X205163096Y-88935094D02*
X205067858Y-89030332D01*
X205067858Y-89030332D02*
X205020239Y-89125570D01*
X205020239Y-89125570D02*
X204972620Y-89316046D01*
X204972620Y-89316046D02*
X204972620Y-89458903D01*
X204972620Y-89458903D02*
X205020239Y-89649379D01*
X205020239Y-89649379D02*
X205067858Y-89744617D01*
X205067858Y-89744617D02*
X205163096Y-89839856D01*
X205163096Y-89839856D02*
X205305953Y-89887475D01*
X205305953Y-89887475D02*
X205544048Y-89887475D01*
X204163096Y-89839856D02*
X204258334Y-89887475D01*
X204258334Y-89887475D02*
X204448810Y-89887475D01*
X204448810Y-89887475D02*
X204544048Y-89839856D01*
X204544048Y-89839856D02*
X204591667Y-89744617D01*
X204591667Y-89744617D02*
X204591667Y-89363665D01*
X204591667Y-89363665D02*
X204544048Y-89268427D01*
X204544048Y-89268427D02*
X204448810Y-89220808D01*
X204448810Y-89220808D02*
X204258334Y-89220808D01*
X204258334Y-89220808D02*
X204163096Y-89268427D01*
X204163096Y-89268427D02*
X204115477Y-89363665D01*
X204115477Y-89363665D02*
X204115477Y-89458903D01*
X204115477Y-89458903D02*
X204591667Y-89554141D01*
X203734524Y-89839856D02*
X203639286Y-89887475D01*
X203639286Y-89887475D02*
X203448810Y-89887475D01*
X203448810Y-89887475D02*
X203353572Y-89839856D01*
X203353572Y-89839856D02*
X203305953Y-89744617D01*
X203305953Y-89744617D02*
X203305953Y-89696998D01*
X203305953Y-89696998D02*
X203353572Y-89601760D01*
X203353572Y-89601760D02*
X203448810Y-89554141D01*
X203448810Y-89554141D02*
X203591667Y-89554141D01*
X203591667Y-89554141D02*
X203686905Y-89506522D01*
X203686905Y-89506522D02*
X203734524Y-89411284D01*
X203734524Y-89411284D02*
X203734524Y-89363665D01*
X203734524Y-89363665D02*
X203686905Y-89268427D01*
X203686905Y-89268427D02*
X203591667Y-89220808D01*
X203591667Y-89220808D02*
X203448810Y-89220808D01*
X203448810Y-89220808D02*
X203353572Y-89268427D01*
X202877381Y-89887475D02*
X202877381Y-89220808D01*
X202877381Y-88887475D02*
X202925000Y-88935094D01*
X202925000Y-88935094D02*
X202877381Y-88982713D01*
X202877381Y-88982713D02*
X202829762Y-88935094D01*
X202829762Y-88935094D02*
X202877381Y-88887475D01*
X202877381Y-88887475D02*
X202877381Y-88982713D01*
X201972620Y-89220808D02*
X201972620Y-90030332D01*
X201972620Y-90030332D02*
X202020239Y-90125570D01*
X202020239Y-90125570D02*
X202067858Y-90173189D01*
X202067858Y-90173189D02*
X202163096Y-90220808D01*
X202163096Y-90220808D02*
X202305953Y-90220808D01*
X202305953Y-90220808D02*
X202401191Y-90173189D01*
X201972620Y-89839856D02*
X202067858Y-89887475D01*
X202067858Y-89887475D02*
X202258334Y-89887475D01*
X202258334Y-89887475D02*
X202353572Y-89839856D01*
X202353572Y-89839856D02*
X202401191Y-89792236D01*
X202401191Y-89792236D02*
X202448810Y-89696998D01*
X202448810Y-89696998D02*
X202448810Y-89411284D01*
X202448810Y-89411284D02*
X202401191Y-89316046D01*
X202401191Y-89316046D02*
X202353572Y-89268427D01*
X202353572Y-89268427D02*
X202258334Y-89220808D01*
X202258334Y-89220808D02*
X202067858Y-89220808D01*
X202067858Y-89220808D02*
X201972620Y-89268427D01*
X201496429Y-89220808D02*
X201496429Y-89887475D01*
X201496429Y-89316046D02*
X201448810Y-89268427D01*
X201448810Y-89268427D02*
X201353572Y-89220808D01*
X201353572Y-89220808D02*
X201210715Y-89220808D01*
X201210715Y-89220808D02*
X201115477Y-89268427D01*
X201115477Y-89268427D02*
X201067858Y-89363665D01*
X201067858Y-89363665D02*
X201067858Y-89887475D01*
X200210715Y-89839856D02*
X200305953Y-89887475D01*
X200305953Y-89887475D02*
X200496429Y-89887475D01*
X200496429Y-89887475D02*
X200591667Y-89839856D01*
X200591667Y-89839856D02*
X200639286Y-89744617D01*
X200639286Y-89744617D02*
X200639286Y-89363665D01*
X200639286Y-89363665D02*
X200591667Y-89268427D01*
X200591667Y-89268427D02*
X200496429Y-89220808D01*
X200496429Y-89220808D02*
X200305953Y-89220808D01*
X200305953Y-89220808D02*
X200210715Y-89268427D01*
X200210715Y-89268427D02*
X200163096Y-89363665D01*
X200163096Y-89363665D02*
X200163096Y-89458903D01*
X200163096Y-89458903D02*
X200639286Y-89554141D01*
X199305953Y-89887475D02*
X199305953Y-88887475D01*
X199305953Y-89839856D02*
X199401191Y-89887475D01*
X199401191Y-89887475D02*
X199591667Y-89887475D01*
X199591667Y-89887475D02*
X199686905Y-89839856D01*
X199686905Y-89839856D02*
X199734524Y-89792236D01*
X199734524Y-89792236D02*
X199782143Y-89696998D01*
X199782143Y-89696998D02*
X199782143Y-89411284D01*
X199782143Y-89411284D02*
X199734524Y-89316046D01*
X199734524Y-89316046D02*
X199686905Y-89268427D01*
X199686905Y-89268427D02*
X199591667Y-89220808D01*
X199591667Y-89220808D02*
X199401191Y-89220808D01*
X199401191Y-89220808D02*
X199305953Y-89268427D01*
X198067857Y-89887475D02*
X198067857Y-88887475D01*
X198067857Y-89268427D02*
X197972619Y-89220808D01*
X197972619Y-89220808D02*
X197782143Y-89220808D01*
X197782143Y-89220808D02*
X197686905Y-89268427D01*
X197686905Y-89268427D02*
X197639286Y-89316046D01*
X197639286Y-89316046D02*
X197591667Y-89411284D01*
X197591667Y-89411284D02*
X197591667Y-89696998D01*
X197591667Y-89696998D02*
X197639286Y-89792236D01*
X197639286Y-89792236D02*
X197686905Y-89839856D01*
X197686905Y-89839856D02*
X197782143Y-89887475D01*
X197782143Y-89887475D02*
X197972619Y-89887475D01*
X197972619Y-89887475D02*
X198067857Y-89839856D01*
X197258333Y-89220808D02*
X197020238Y-89887475D01*
X196782143Y-89220808D02*
X197020238Y-89887475D01*
X197020238Y-89887475D02*
X197115476Y-90125570D01*
X197115476Y-90125570D02*
X197163095Y-90173189D01*
X197163095Y-90173189D02*
X197258333Y-90220808D01*
X195782142Y-88887475D02*
X195210714Y-88887475D01*
X195496428Y-89887475D02*
X195496428Y-88887475D01*
X194448809Y-89887475D02*
X194448809Y-89363665D01*
X194448809Y-89363665D02*
X194496428Y-89268427D01*
X194496428Y-89268427D02*
X194591666Y-89220808D01*
X194591666Y-89220808D02*
X194782142Y-89220808D01*
X194782142Y-89220808D02*
X194877380Y-89268427D01*
X194448809Y-89839856D02*
X194544047Y-89887475D01*
X194544047Y-89887475D02*
X194782142Y-89887475D01*
X194782142Y-89887475D02*
X194877380Y-89839856D01*
X194877380Y-89839856D02*
X194924999Y-89744617D01*
X194924999Y-89744617D02*
X194924999Y-89649379D01*
X194924999Y-89649379D02*
X194877380Y-89554141D01*
X194877380Y-89554141D02*
X194782142Y-89506522D01*
X194782142Y-89506522D02*
X194544047Y-89506522D01*
X194544047Y-89506522D02*
X194448809Y-89458903D01*
X194067856Y-89220808D02*
X193829761Y-89887475D01*
X193591666Y-89220808D02*
X193829761Y-89887475D01*
X193829761Y-89887475D02*
X193924999Y-90125570D01*
X193924999Y-90125570D02*
X193972618Y-90173189D01*
X193972618Y-90173189D02*
X194067856Y-90220808D01*
X193067856Y-89887475D02*
X193163094Y-89839856D01*
X193163094Y-89839856D02*
X193210713Y-89744617D01*
X193210713Y-89744617D02*
X193210713Y-88887475D01*
X192258332Y-89887475D02*
X192258332Y-89363665D01*
X192258332Y-89363665D02*
X192305951Y-89268427D01*
X192305951Y-89268427D02*
X192401189Y-89220808D01*
X192401189Y-89220808D02*
X192591665Y-89220808D01*
X192591665Y-89220808D02*
X192686903Y-89268427D01*
X192258332Y-89839856D02*
X192353570Y-89887475D01*
X192353570Y-89887475D02*
X192591665Y-89887475D01*
X192591665Y-89887475D02*
X192686903Y-89839856D01*
X192686903Y-89839856D02*
X192734522Y-89744617D01*
X192734522Y-89744617D02*
X192734522Y-89649379D01*
X192734522Y-89649379D02*
X192686903Y-89554141D01*
X192686903Y-89554141D02*
X192591665Y-89506522D01*
X192591665Y-89506522D02*
X192353570Y-89506522D01*
X192353570Y-89506522D02*
X192258332Y-89458903D01*
X191782141Y-89220808D02*
X191782141Y-89887475D01*
X191782141Y-89316046D02*
X191734522Y-89268427D01*
X191734522Y-89268427D02*
X191639284Y-89220808D01*
X191639284Y-89220808D02*
X191496427Y-89220808D01*
X191496427Y-89220808D02*
X191401189Y-89268427D01*
X191401189Y-89268427D02*
X191353570Y-89363665D01*
X191353570Y-89363665D02*
X191353570Y-89887475D01*
X190163093Y-89601760D02*
X189686903Y-89601760D01*
X190258331Y-89887475D02*
X189924998Y-88887475D01*
X189924998Y-88887475D02*
X189591665Y-89887475D01*
X188686903Y-89887475D02*
X189020236Y-89411284D01*
X189258331Y-89887475D02*
X189258331Y-88887475D01*
X189258331Y-88887475D02*
X188877379Y-88887475D01*
X188877379Y-88887475D02*
X188782141Y-88935094D01*
X188782141Y-88935094D02*
X188734522Y-88982713D01*
X188734522Y-88982713D02*
X188686903Y-89077951D01*
X188686903Y-89077951D02*
X188686903Y-89220808D01*
X188686903Y-89220808D02*
X188734522Y-89316046D01*
X188734522Y-89316046D02*
X188782141Y-89363665D01*
X188782141Y-89363665D02*
X188877379Y-89411284D01*
X188877379Y-89411284D02*
X189258331Y-89411284D01*
X188305950Y-89839856D02*
X188163093Y-89887475D01*
X188163093Y-89887475D02*
X187924998Y-89887475D01*
X187924998Y-89887475D02*
X187829760Y-89839856D01*
X187829760Y-89839856D02*
X187782141Y-89792236D01*
X187782141Y-89792236D02*
X187734522Y-89696998D01*
X187734522Y-89696998D02*
X187734522Y-89601760D01*
X187734522Y-89601760D02*
X187782141Y-89506522D01*
X187782141Y-89506522D02*
X187829760Y-89458903D01*
X187829760Y-89458903D02*
X187924998Y-89411284D01*
X187924998Y-89411284D02*
X188115474Y-89363665D01*
X188115474Y-89363665D02*
X188210712Y-89316046D01*
X188210712Y-89316046D02*
X188258331Y-89268427D01*
X188258331Y-89268427D02*
X188305950Y-89173189D01*
X188305950Y-89173189D02*
X188305950Y-89077951D01*
X188305950Y-89077951D02*
X188258331Y-88982713D01*
X188258331Y-88982713D02*
X188210712Y-88935094D01*
X188210712Y-88935094D02*
X188115474Y-88887475D01*
X188115474Y-88887475D02*
X187877379Y-88887475D01*
X187877379Y-88887475D02*
X187734522Y-88935094D01*
X186829760Y-89887475D02*
X187305950Y-89887475D01*
X187305950Y-89887475D02*
X187305950Y-88887475D01*
X186544045Y-89601760D02*
X186067855Y-89601760D01*
X186639283Y-89887475D02*
X186305950Y-88887475D01*
X186305950Y-88887475D02*
X185972617Y-89887475D01*
X185639283Y-89887475D02*
X185639283Y-88887475D01*
X185639283Y-88887475D02*
X185067855Y-89887475D01*
X185067855Y-89887475D02*
X185067855Y-88887475D01*
X196448808Y-90497419D02*
X196115475Y-91497419D01*
X196115475Y-91497419D02*
X195782142Y-90497419D01*
X194924999Y-91497419D02*
X195496427Y-91497419D01*
X195210713Y-91497419D02*
X195210713Y-90497419D01*
X195210713Y-90497419D02*
X195305951Y-90640276D01*
X195305951Y-90640276D02*
X195401189Y-90735514D01*
X195401189Y-90735514D02*
X195496427Y-90783133D01*
X194496427Y-91402180D02*
X194448808Y-91449800D01*
X194448808Y-91449800D02*
X194496427Y-91497419D01*
X194496427Y-91497419D02*
X194544046Y-91449800D01*
X194544046Y-91449800D02*
X194496427Y-91402180D01*
X194496427Y-91402180D02*
X194496427Y-91497419D01*
X193829761Y-90497419D02*
X193734523Y-90497419D01*
X193734523Y-90497419D02*
X193639285Y-90545038D01*
X193639285Y-90545038D02*
X193591666Y-90592657D01*
X193591666Y-90592657D02*
X193544047Y-90687895D01*
X193544047Y-90687895D02*
X193496428Y-90878371D01*
X193496428Y-90878371D02*
X193496428Y-91116466D01*
X193496428Y-91116466D02*
X193544047Y-91306942D01*
X193544047Y-91306942D02*
X193591666Y-91402180D01*
X193591666Y-91402180D02*
X193639285Y-91449800D01*
X193639285Y-91449800D02*
X193734523Y-91497419D01*
X193734523Y-91497419D02*
X193829761Y-91497419D01*
X193829761Y-91497419D02*
X193924999Y-91449800D01*
X193924999Y-91449800D02*
X193972618Y-91402180D01*
X193972618Y-91402180D02*
X194020237Y-91306942D01*
X194020237Y-91306942D02*
X194067856Y-91116466D01*
X194067856Y-91116466D02*
X194067856Y-90878371D01*
X194067856Y-90878371D02*
X194020237Y-90687895D01*
X194020237Y-90687895D02*
X193972618Y-90592657D01*
X193972618Y-90592657D02*
X193924999Y-90545038D01*
X193924999Y-90545038D02*
X193829761Y-90497419D01*
M02*
