%TF.GenerationSoftware,KiCad,Pcbnew,10.0.1*%
%TF.CreationDate,2026-08-26T18:43:47+03:00*%
%TF.ProjectId,Lazer-amplitude-modulation,4c617a65-722d-4616-9d70-6c6974756465,rev?*%
%TF.SameCoordinates,Original*%
%TF.FileFunction,Soldermask,Top*%
%TF.FilePolarity,Negative*%
%FSLAX46Y46*%
G04 Gerber Fmt 4.6, Leading zero omitted, Abs format (unit mm)*
G04 Created by KiCad (PCBNEW 10.0.1) date 2026-08-26 18:43:47*
%MOMM*%
%LPD*%
G01*
G04 APERTURE LIST*
G04 Aperture macros list*
%AMRoundRect*
0 Rectangle with rounded corners*
0 $1 Rounding radius*
0 $2 $3 $4 $5 $6 $7 $8 $9 X,Y pos of 4 corners*
0 Add a 4 corners polygon primitive as box body*
4,1,4,$2,$3,$4,$5,$6,$7,$8,$9,$2,$3,0*
0 Add four circle primitives for the rounded corners*
1,1,$1+$1,$2,$3*
1,1,$1+$1,$4,$5*
1,1,$1+$1,$6,$7*
1,1,$1+$1,$8,$9*
0 Add four rect primitives between the rounded corners*
20,1,$1+$1,$2,$3,$4,$5,0*
20,1,$1+$1,$4,$5,$6,$7,0*
20,1,$1+$1,$6,$7,$8,$9,0*
20,1,$1+$1,$8,$9,$2,$3,0*%
G04 Aperture macros list end*
%ADD10C,1.700000*%
%ADD11R,1.700000X1.700000*%
%ADD12R,2.000000X1.905000*%
%ADD13O,2.000000X1.905000*%
%ADD14RoundRect,0.250000X-0.550000X-0.550000X0.550000X-0.550000X0.550000X0.550000X-0.550000X0.550000X0*%
%ADD15C,1.600000*%
%ADD16RoundRect,0.250000X0.337500X0.475000X-0.337500X0.475000X-0.337500X-0.475000X0.337500X-0.475000X0*%
%ADD17RoundRect,0.250000X0.475000X-0.337500X0.475000X0.337500X-0.475000X0.337500X-0.475000X-0.337500X0*%
%ADD18RoundRect,0.250000X-0.350000X-0.450000X0.350000X-0.450000X0.350000X0.450000X-0.350000X0.450000X0*%
%ADD19RoundRect,0.500000X1.500000X-0.500000X1.500000X0.500000X-1.500000X0.500000X-1.500000X-0.500000X0*%
%ADD20R,1.800000X1.800000*%
%ADD21C,1.800000*%
%ADD22RoundRect,0.250000X-0.353553X0.000000X0.000000X-0.353553X0.353553X0.000000X0.000000X0.353553X0*%
%ADD23C,1.000000*%
%ADD24C,1.440000*%
%ADD25RoundRect,0.250000X-0.337500X-0.475000X0.337500X-0.475000X0.337500X0.475000X-0.337500X0.475000X0*%
%ADD26RoundRect,0.250000X-0.450000X0.350000X-0.450000X-0.350000X0.450000X-0.350000X0.450000X0.350000X0*%
%ADD27RoundRect,0.250000X0.350000X0.450000X-0.350000X0.450000X-0.350000X-0.450000X0.350000X-0.450000X0*%
%ADD28R,1.905000X2.000000*%
%ADD29O,1.905000X2.000000*%
G04 APERTURE END LIST*
D10*
%TO.C,J1*%
X228430000Y-77875000D03*
X225890000Y-77875000D03*
D11*
X223350000Y-77875000D03*
%TD*%
D12*
%TO.C,Q2*%
X184150000Y-65455000D03*
D13*
X184150000Y-62915000D03*
X184150000Y-60375000D03*
%TD*%
D11*
%TO.C,J3*%
X189150000Y-95025000D03*
D10*
X191690000Y-95025000D03*
%TD*%
D11*
%TO.C,J2*%
X202325000Y-53025000D03*
D10*
X202325000Y-55565000D03*
X202325000Y-58105000D03*
X202325000Y-60645000D03*
%TD*%
D14*
%TO.C,U1*%
X203370000Y-74790000D03*
D15*
X203370000Y-77330000D03*
X203370000Y-79870000D03*
X203370000Y-82410000D03*
X210990000Y-82410000D03*
X210990000Y-79870000D03*
X210990000Y-77330000D03*
X210990000Y-74790000D03*
%TD*%
D16*
%TO.C,C3*%
X208225000Y-70725000D03*
X206150000Y-70725000D03*
%TD*%
D17*
%TO.C,C6*%
X215650000Y-64362500D03*
X215650000Y-62287500D03*
%TD*%
D18*
%TO.C,R9*%
X216700000Y-91275000D03*
X218700000Y-91275000D03*
%TD*%
D16*
%TO.C,C1*%
X210375000Y-91475000D03*
X208300000Y-91475000D03*
%TD*%
D18*
%TO.C,R6*%
X208025000Y-56425000D03*
X210025000Y-56425000D03*
%TD*%
D16*
%TO.C,C4*%
X208375000Y-85500000D03*
X206300000Y-85500000D03*
%TD*%
D19*
%TO.C,J4*%
X219400000Y-97025000D03*
%TD*%
D20*
%TO.C,D1*%
X226025000Y-70425000D03*
D21*
X226025000Y-67885000D03*
%TD*%
D22*
%TO.C,LD2*%
X225700000Y-86975000D03*
D23*
X224700000Y-87975000D03*
X225700000Y-88975000D03*
%TD*%
D18*
%TO.C,R4*%
X198350000Y-68025000D03*
X200350000Y-68025000D03*
%TD*%
D24*
%TO.C,RV2*%
X183520000Y-77740000D03*
X188600000Y-75200000D03*
X183520000Y-72660000D03*
%TD*%
D25*
%TO.C,C2*%
X203375000Y-91475000D03*
X205450000Y-91475000D03*
%TD*%
D26*
%TO.C,R3*%
X218300000Y-73300000D03*
X218300000Y-75300000D03*
%TD*%
D25*
%TO.C,C5*%
X213725000Y-53425000D03*
X215800000Y-53425000D03*
%TD*%
D18*
%TO.C,R7*%
X208100000Y-52675000D03*
X210100000Y-52675000D03*
%TD*%
D27*
%TO.C,R8*%
X215825000Y-57750000D03*
X213825000Y-57750000D03*
%TD*%
D28*
%TO.C,U2*%
X209380000Y-96425000D03*
D29*
X206840000Y-96425000D03*
X204300000Y-96425000D03*
%TD*%
D18*
%TO.C,R2*%
X216425000Y-80250000D03*
X218425000Y-80250000D03*
%TD*%
D26*
%TO.C,R5*%
X183575000Y-83675000D03*
X183575000Y-85675000D03*
%TD*%
D24*
%TO.C,RV3*%
X227480000Y-53235000D03*
X222400000Y-55775000D03*
X227480000Y-58315000D03*
%TD*%
M02*
